<svg xmlns="http://www.w3.org/2000/svg" viewBox="0 0 76 75" width="76" height="75">
	<style>
		tspan { white-space:pre }
		.shp0 { fill: #037eb4 } 
		.shp1 { fill: #9ae4e5 } 
	</style>
	<g id="#ffffffff">
	</g>
	<g id="#037eb4ff">
		<path id="Layer" class="shp0" d="M6.6 0L57.49 0C60.02 0.48 62.91 2.08 62.93 5.01C63.21 12.21 62.77 19.42 63.18 26.63C61.46 26.26 59.33 26.05 59.18 23.83C58.66 17.61 59.26 11.34 58.87 5.1C40.95 4.94 23.01 4.91 5.09 5.12C4.94 26.73 4.95 48.36 5.09 69.98C12.07 70.12 19.06 69.83 26.04 70.07C27.87 69.78 28.59 71.63 29.66 72.7C29.25 73.28 28.45 74.43 28.04 75L6.49 75C3.04 74.55 0.32 71.83 0 68.34L0 6.51C0.48 3.09 3.16 0.41 6.6 0Z" />
		<path id="Layer" class="shp0" d="M11.77 17.02C24.6 16.94 37.43 17.08 50.26 16.95C51.33 18.86 50.69 20.73 49.06 22.05C37.07 21.94 25.08 22.02 13.08 22.01C11.52 20.73 10.75 18.92 11.77 17.02Z" />
		<path id="Layer" class="shp0" d="M11.71 38.02C11.13 36.62 10.83 34.19 12.98 34.12C16.98 33.87 21 33.92 25 34.09C27.09 33.86 28.03 37.19 25.96 37.89C21.22 38.21 16.46 37.88 11.71 38.02Z" />
		<path id="Layer" class="shp0" d="M12.25 51.33C15.11 50.69 18.12 50.91 21.02 51.17C22.98 51.68 23.16 55.23 20.83 55.33C17.73 55.51 14.29 56.13 11.43 54.66C10.9 53.52 11.09 52.01 12.25 51.33Z" />
	</g>
	<g id="#9ae4e5ff">
		<path id="Layer" class="shp1" d="M32.6 41.57C37.6 31.07 51.46 25.97 61.99 31.03C63.46 31.61 63.34 33.53 62.63 34.67C59.02 35.13 55.6 33.19 51.99 33.43C45 33.76 38.37 38.32 35.79 44.86C32.45 52.52 35.16 62.2 41.97 67.03C47.66 71.4 55.94 71.79 62.1 68.13C68.39 64.62 72.04 57.16 71.22 50.03C70.88 45.38 68.11 41.47 65.73 37.63C66.75 37.09 67.77 36.55 68.79 36.02C76.87 42.99 77.66 56.2 71.76 64.81C68.34 70.21 62.42 73.37 56.4 75L48.63 75C43.69 73.21 38.61 70.93 35.33 66.64C29.58 59.77 28.37 49.5 32.6 41.57Z" />
		<path id="Layer" class="shp1" d="M44.11 41.28C44.59 40.69 45.56 39.51 46.05 38.92C48.84 40.38 50.96 42.72 53.07 45C54.96 43.01 56.76 40.91 59 39.3C60.56 38.98 62.24 40.82 61.38 42.26C59.98 44.41 57.98 46.08 56.16 47.86C58.43 48.18 63.15 47.21 62.7 50.92C61.16 53.33 57.65 52.06 55.22 52.39C55.17 53.12 55.08 54.56 55.04 55.29C57.62 55.77 62.61 54.04 62.92 57.91C61.62 60.82 57.78 59.43 55.28 59.82C54.86 61.69 55.85 65.61 52.96 65.62C50.24 65.43 51.13 61.68 50.71 59.83C48.14 59.47 43.3 60.93 43.23 56.94C44.99 54.46 48.38 55.64 50.94 55.29C50.91 54.57 50.84 53.13 50.81 52.41C48.42 52.01 43.72 53.6 43.32 50.13C43.85 47.16 47.75 48.29 49.84 47.84C47.65 45.91 45.6 43.81 44.11 41.28Z" />
	</g>
</svg>