<svg t="1575701336403" class="icon" viewBox="0 0 1024 1024" version="1.1" xmlns="http://www.w3.org/2000/svg" p-id="4943" width="128" height="128"><path d="M76.8 1024c-14.08 0-25.6-11.52-25.6-25.6V153.6C51.2 69.12 120.32 0 204.8 0h358.4c84.48 0 153.6 69.12 153.6 153.6v156.16c0 14.08-11.52 25.6-25.6 25.6s-25.6-11.52-25.6-25.6V153.6c0-56.32-46.08-102.4-102.4-102.4H204.8c-56.32 0-102.4 46.08-102.4 102.4v844.8c0 14.08-11.52 25.6-25.6 25.6z" fill="#cdcdcd" p-id="4944"></path><path d="M652.8 1024H25.6c-14.08 0-25.6-11.52-25.6-25.6s11.52-25.6 25.6-25.6h627.2c14.08 0 25.6 11.52 25.6 25.6s-11.52 25.6-25.6 25.6zM320 230.4h-115.2c-14.08 0-25.6-11.52-25.6-25.6s11.52-25.6 25.6-25.6h115.2c14.08 0 25.6 11.52 25.6 25.6s-11.52 25.6-25.6 25.6zM563.2 230.4h-115.2c-14.08 0-25.6-11.52-25.6-25.6s11.52-25.6 25.6-25.6h115.2c14.08 0 25.6 11.52 25.6 25.6s-11.52 25.6-25.6 25.6zM256 409.6h-51.2c-14.08 0-25.6-11.52-25.6-25.6s11.52-25.6 25.6-25.6h51.2c14.08 0 25.6 11.52 25.6 25.6s-11.52 25.6-25.6 25.6zM947.2 497.92c-14.08 0-25.6-11.52-25.6-25.6V320c0-56.32-46.08-102.4-102.4-102.4H691.2c-14.08 0-25.6-11.52-25.6-25.6s11.52-25.6 25.6-25.6h128c84.48 0 153.6 69.12 153.6 153.6v152.32c0 14.08-11.52 25.6-25.6 25.6z" fill="#cdcdcd" p-id="4945"></path><path d="M652.8 1024c-204.8 0-371.2-166.4-371.2-371.2s166.4-371.2 371.2-371.2 371.2 166.4 371.2 371.2-166.4 371.2-371.2 371.2z m0-691.2c-176.64 0-320 143.36-320 320s143.36 320 320 320 320-143.36 320-320-143.36-320-320-320z" fill="#cdcdcd" p-id="4946"></path><path d="M897.28 922.88c-6.4 0-12.8-2.56-17.92-7.68L390.4 426.24c-10.24-10.24-10.24-25.6 0-35.84 10.24-10.24 25.6-10.24 35.84 0l488.96 488.96c10.24 10.24 10.24 25.6 0 35.84-5.12 5.12-11.52 7.68-17.92 7.68z" fill="#cdcdcd" p-id="4947"></path></svg>