<svg t="1573039439942" class="icon" viewBox="0 0 1024 1024" version="1.1" xmlns="http://www.w3.org/2000/svg" p-id="3968" width="128" height="128"><path d="M896 42.656h-170.656c0-25.6-17.056-42.656-42.656-42.656H341.344c-25.6 0-42.656 17.056-42.656 42.656H128.032c-25.6 0-42.656 17.056-42.656 42.656v896c0 25.6 17.056 42.656 42.656 42.656h768c25.6 0 42.656-17.056 42.656-42.656v-896c0-25.6-17.056-42.656-42.656-42.656zM384 85.344h256v85.344h-256V85.344z m469.344 853.312H170.688V128h128v85.344c0 25.6 17.056 42.656 42.656 42.656h341.344c25.6 0 42.656-17.056 42.656-42.656V128h128v810.656z" p-id="3969" fill="#bfbfbf"></path><path d="M448 622.944l-140.8-140.8-59.744 59.744L448 742.432l328.544-328.544-59.744-59.744z" p-id="3970" fill="#bfbfbf"></path></svg>