<?xml version="1.0" standalone="no"?><!DOCTYPE svg PUBLIC "-//W3C//DTD SVG 1.1//EN" "http://www.w3.org/Graphics/SVG/1.1/DTD/svg11.dtd"><svg class="icon" width="128px" height="128.00px" viewBox="0 0 1024 1024" version="1.1" xmlns="http://www.w3.org/2000/svg"><path fill="#006699" d="M515.669333 130.133333c17.28 0.853333 34.090667 5.674667 49.28 13.994667 101.546667 60.458667 202.026667 122.88 301.482667 186.752 34.645333 23.850667 36.224 81.450667 0.170667 106.453333-98.432 63.658667-198.826667 124.16-298.24 186.24a110.208 110.208 0 0 1-109.653334 1.834667 10494.037333 10494.037333 0 0 1-301.098666-188.074667c-34.773333-24.192-35.498667-81.834667 0.213333-106.453333 98.389333-63.189333 198.741333-123.306667 298.112-184.874667 18.005333-10.709333 38.4-16.213333 59.733333-15.872z m-5.845333 42.666667c-10.368 0.554667-20.48 3.413333-29.568 8.405333-101.034667 60.202667-205.226667 116.181333-299.904 185.984-10.752 8.490667-10.496 26.666667 1.024 34.645334a10428.672 10428.672 0 0 0 298.666667 186.624 66.133333 66.133333 0 0 0 63.872 0c101.162667-60.672 205.397333-117.077333 300.074666-187.392a22.186667 22.186667 0 0 0-1.194666-34.688 10401.28 10401.28 0 0 0-299.008-185.173334 67.669333 67.669333 0 0 0-33.962667-8.448z"  /><path fill="#006699" d="M875.093333 491.221333c29.653333 5.461333 18.944 54.485333-9.813333 74.410667-98.389333 63.658667-198.784 124.16-298.24 186.24a110.208 110.208 0 0 1-109.568 1.834667 10599.509333 10599.509333 0 0 1-301.141333-188.074667C135.210667 550.912 128 512.682667 128 512.682667c1.066667-25.472 32.597333-25.856 43.946667 7.04 1.493333 3.84 3.84 7.082667 7.04 9.642666 94.634667 70.272 198.784 126.72 299.776 187.392a66.133333 66.133333 0 0 0 63.872 0c101.162667-60.586667 205.397333-117.077333 300.032-187.392 18.346667-14.592 7.552-39.893333 32.426666-38.144z"  /><path fill="#006699" d="M876.373333 619.221333c29.653333 5.461333 18.944 54.485333-9.813333 74.410667-98.389333 63.658667-198.741333 124.16-298.24 186.24a110.208 110.208 0 0 1-109.568 1.834667 10599.509333 10599.509333 0 0 1-301.141333-188.074667c-21.162667-14.72-28.330667-52.949333-28.330667-52.949333 1.066667-25.472 32.597333-25.856 43.946667 7.04 1.493333 3.84 3.84 7.082667 7.04 9.642666 94.634667 70.314667 198.784 126.72 299.776 187.392a66.133333 66.133333 0 0 0 63.872 0c101.162667-60.586667 205.397333-117.077333 300.074666-187.392 18.602667-14.762667 3.968-40.192 32.341334-38.144z"  /></svg>