<?xml version="1.0" standalone="no"?><!DOCTYPE svg PUBLIC "-//W3C//DTD SVG 1.1//EN" "http://www.w3.org/Graphics/SVG/1.1/DTD/svg11.dtd"><svg class="icon" width="128px" height="128.00px" viewBox="0 0 1024 1024" version="1.1" xmlns="http://www.w3.org/2000/svg"><path fill="#006699" d="M569.87 598.73H375.75c-15.97 0-28.91-12.95-28.91-28.91s12.94-28.91 28.91-28.91h194.13c15.97 0 28.91 12.95 28.91 28.91s-12.95 28.91-28.92 28.91zM646.97 444.55H375.75c-15.97 0-28.91-12.95-28.91-28.91s12.94-28.91 28.91-28.91h271.22c15.97 0 28.91 12.95 28.91 28.91-0.01 15.96-12.94 28.91-28.91 28.91zM762.55 868.55h-501.1c-37.19 0-67.45-30.26-67.45-67.45V222.91c0-37.19 30.26-67.45 67.45-67.45h76.71c15.97 0 28.91 12.95 28.91 28.91s-12.94 28.91-28.91 28.91h-76.71c-5.32 0-9.64 4.33-9.64 9.64V801.1c0 5.31 4.32 9.64 9.64 9.64h501.09c5.32 0 9.64-4.33 9.64-9.64V222.91c0-5.31-4.32-9.64-9.64-9.64h-74.63c-15.97 0-28.91-12.95-28.91-28.91s12.94-28.91 28.91-28.91h74.63c37.19 0 67.45 30.26 67.45 67.45v578.18c0.01 37.2-30.25 67.47-67.44 67.47zM569.87 213.27H452.84c-15.97 0-28.91-12.95-28.91-28.91s12.94-28.91 28.91-28.91h117.04c15.97 0 28.91 12.95 28.91 28.91s-12.95 28.91-28.92 28.91z" /></svg>