<svg xmlns="http://www.w3.org/2000/svg" viewBox="0 0 76 75" width="76" height="75">
	<style>
		tspan { white-space:pre }
		.shp0 { fill: #037eb4 } 
		.shp1 { fill: #f2a8b1 } 
	</style>
	<g id="#ffffffff">
	</g>
	<g id="#037eb4ff">
		<path id="Layer" class="shp0" d="M6.75 0L57.34 0C59.97 0.37 62.9 2.06 62.94 5.03C63.2 12.17 62.73 19.32 63.22 26.46C61.36 26.53 59.32 25.93 59.15 23.77C58.69 17.57 59.27 11.34 58.87 5.13C40.95 4.9 23.03 4.93 5.11 5.12C4.89 26.72 5 48.33 5.06 69.93C12.07 70.14 19.08 69.85 26.09 70.04C27.89 69.81 28.68 71.55 29.58 72.73C29.2 73.3 28.44 74.43 28.06 75L6.62 75C3.06 74.65 0.21 71.78 0 68.19L0 6.65C0.37 3.12 3.2 0.3 6.75 0Z" />
		<path id="Layer" class="shp0" d="M11.2 18.35C11.7 16.63 13.56 17.1 14.93 16.99C26.69 16.98 38.46 17.05 50.23 16.96C51.42 18.89 50.7 20.77 48.99 22.05C37.06 21.94 25.12 22.01 13.19 22.02C12.28 20.94 10.77 19.99 11.2 18.35Z" />
		<path id="Layer" class="shp0" d="M11.78 38C10.99 36.64 10.85 34.26 12.96 34.1C16.97 33.89 21.01 33.94 25.02 34.08C27.1 33.87 28.03 37.24 25.95 37.9C21.24 38.19 16.5 37.89 11.78 38Z" />
		<path id="Layer" class="shp0" d="M12.28 51.3C15.15 50.72 18.15 50.93 21.06 51.16C22.96 51.77 23.14 55.14 20.86 55.34C18 55.52 14.94 55.93 12.18 55.05C10.53 54.55 10.98 51.99 12.28 51.3Z" />
	</g>
	<g id="#f2a8b1ff">
		<path id="Layer" fill-rule="evenodd" class="shp1" d="M44.12 31.08C53.96 26.59 66.53 30.62 72.17 39.78C77.31 47.65 76.82 58.61 71.02 66C67.18 71.05 61.18 74.05 54.99 75L49.54 75C45.63 73.74 41.65 72.28 38.46 69.59C32.72 64.91 29.61 57.26 30.36 49.9C31.04 41.73 36.53 34.21 44.12 31.08ZM48.25 34.43C40.51 36.43 34.67 44.03 34.81 52.04C34.47 62.51 44.62 71.71 55.02 70.2C65.17 69.4 72.96 58.87 70.91 48.93C69.45 38.68 58.2 31.42 48.25 34.43Z" />
		<path id="Layer" class="shp1" d="M60.34 42.37C61.91 41.89 63.45 43.38 62.84 44.94C60.97 47.66 58.3 49.71 56.08 52.12C58.3 54.5 60.85 56.57 62.81 59.17C63.51 60.86 61.85 62.5 60.16 61.81C57.57 59.84 55.49 57.3 53.12 55.08C50.76 57.45 48.4 59.83 45.93 62.08C45.29 61.9 44 61.54 43.36 61.36C43.17 57.12 47.93 55.16 50.16 52.12C47.88 49.73 45.34 47.56 43.31 44.94C43.15 43.03 44.02 42.15 45.92 42.3C48.56 44.33 50.72 46.88 53.12 49.16C55.55 46.93 57.61 44.26 60.34 42.37Z" />
	</g>
</svg>