<svg t="1573444301801" class="icon" viewBox="0 0 1024 1024" version="1.1" xmlns="http://www.w3.org/2000/svg" p-id="9747" width="128" height="128"><path d="M868.48 942.506667H157.226667A92.586667 92.586667 0 0 1 64 849.92V154.666667a92.586667 92.586667 0 0 1 93.226667-92.586667h649.813333a92.586667 92.586667 0 0 1 92.586667 92.586667h-21.333334a71.253333 71.253333 0 0 0-71.253333-71.253334H157.226667A71.253333 71.253333 0 0 0 85.333333 154.666667v695.253333a71.253333 71.253333 0 0 0 71.253334 71.253333h711.893333A71.253333 71.253333 0 0 0 938.666667 849.92V318.08h21.333333v531.84a92.586667 92.586667 0 0 1-91.52 92.586667z" fill="#dbdbdb" p-id="9748"></path><path d="M960 474.453333h-21.333333v-172.373333a71.253333 71.253333 0 0 0-71.253334-71.253333h-533.333333v-21.333334h533.333333A92.586667 92.586667 0 0 1 960 302.08zM276.48 553.173333h448v21.333334h-448zM276.48 667.946667h448v21.333333h-448zM350.357333 365.653333l15.082667-15.082666 142.08 142.101333-15.061333 15.082667z" fill="#dbdbdb" p-id="9749"></path><path d="M494.357333 492.757333l141.653334-141.653333 15.082666 15.082667-141.653333 141.653333z" fill="#dbdbdb" p-id="9750"></path><path d="M489.813333 489.173333h21.333334v342.613334h-21.333334z" fill="#dbdbdb" p-id="9751"></path></svg>