<svg t="1575360707060" class="icon" viewBox="0 0 1024 1024" version="1.1" xmlns="http://www.w3.org/2000/svg" p-id="4070" width="128" height="128"><path d="M509.952 697.344c-99.84 0-180.736-80.896-180.736-180.736s80.896-180.736 180.736-180.736c99.84 0 180.736 80.896 180.736 180.736s-80.896 180.736-180.736 180.736z m0-310.272c-71.68 0-129.536 57.856-129.536 129.536s57.856 129.536 129.536 129.536 129.536-57.856 129.536-129.536-57.856-129.536-129.536-129.536z" p-id="4071" fill="#cdcdcd"></path><path d="M508.416 363.52c-14.336 0-25.6-11.264-25.6-25.6V281.6c0-14.336 11.264-25.6 25.6-25.6s25.6 11.264 25.6 25.6v56.32c0 14.336-11.264 25.6-25.6 25.6zM381.952 416.256c-6.656 0-12.8-2.56-17.92-7.168l-40.448-39.424c-10.24-9.728-10.24-26.112-0.512-36.352s26.112-10.24 36.352-0.512l40.448 39.424c10.24 9.728 10.24 26.112 0.512 36.352-5.12 5.12-11.776 7.68-18.432 7.68zM329.728 543.232H274.944c-14.336 0-25.6-11.264-25.6-25.6s11.264-25.6 25.6-25.6h54.784c14.336 0 25.6 11.264 25.6 25.6s-11.264 25.6-25.6 25.6zM343.04 709.632c-6.656 0-13.312-2.56-18.432-7.68-9.728-10.24-9.728-26.112 0-36.352l40.96-40.448c10.24-9.728 26.112-9.728 36.352 0 9.728 10.24 9.728 26.112 0 36.352l-40.96 40.448c-5.12 5.12-11.264 7.68-17.92 7.68zM512 778.24c-14.336 0-25.6-11.264-25.6-25.6v-56.32c0-14.336 11.264-25.6 25.6-25.6s25.6 11.264 25.6 25.6v56.32c0 14.336-11.264 25.6-25.6 25.6zM677.376 708.608c-6.656 0-13.312-2.56-18.432-7.68l-39.424-39.936c-9.728-10.24-9.728-26.112 0-36.352 10.24-9.728 26.112-9.728 36.352 0l39.424 39.936c9.728 10.24 9.728 26.112 0 36.352-5.12 5.12-11.264 7.68-17.92 7.68zM745.472 540.672h-54.784c-14.336 0-25.6-11.264-25.6-25.6s11.264-25.6 25.6-25.6h54.784c14.336 0 25.6 11.264 25.6 25.6s-11.264 25.6-25.6 25.6zM636.416 414.72c-6.656 0-12.8-2.56-17.92-7.168-10.24-9.728-10.24-26.112 0-36.352l40.448-40.96c9.728-10.24 26.112-10.24 36.352 0 10.24 9.728 10.24 26.112 0 36.352l-40.448 40.96c-5.12 4.608-11.776 7.168-18.432 7.168z" p-id="4072" fill="#cdcdcd"></path><path d="M510.464 988.16c-259.584 0-471.04-211.456-471.04-471.04S250.88 46.08 510.464 46.08s471.04 211.456 471.04 471.04-211.456 471.04-471.04 471.04z m0-890.88c-231.424 0-419.84 188.416-419.84 419.84s188.416 419.84 419.84 419.84 419.84-188.416 419.84-419.84-188.416-419.84-419.84-419.84z" p-id="4073" fill="#cdcdcd"></path></svg>