<?xml version="1.0" standalone="no"?><!DOCTYPE svg PUBLIC "-//W3C//DTD SVG 1.1//EN" "http://www.w3.org/Graphics/SVG/1.1/DTD/svg11.dtd"><svg t="1594641328227" class="icon" viewBox="0 0 1024 1024" version="1.1" xmlns="http://www.w3.org/2000/svg" p-id="25171" xmlns:xlink="http://www.w3.org/1999/xlink" width="128" height="128"><defs><style type="text/css"></style></defs><path d="M494.592 554.496c11.264 0 22.528-0.512 33.28-2.048 48.64 3.072 95.744 13.824 140.288 32.768 15.36 6.656 33.792-0.512 40.448-16.384 6.656-15.36-0.512-33.792-16.384-40.448-15.872-6.656-32.768-12.8-49.152-17.92 76.288-49.152 126.976-134.144 126.976-231.424 0-151.552-123.392-274.944-274.944-274.944s-274.944 123.392-274.944 274.944c0 98.304 52.224 185.344 130.048 233.472-199.68 63.488-344.576 250.88-344.576 471.552 0 16.896 13.824 30.72 30.72 30.72s30.72-13.824 30.72-30.72c0-227.328 176.128-414.208 398.848-431.616 9.216 1.536 18.944 2.048 28.672 2.048z m-213.504-274.944c0-117.76 95.744-213.504 213.504-213.504 117.76 0 213.504 95.744 213.504 213.504 0 107.008-78.848 195.584-181.76 210.944-8.704-0.512-17.92-0.512-26.624-0.512-11.264 0-22.528 0.512-33.28 1.024-104.448-13.824-185.344-103.424-185.344-211.456z" fill="#006699" p-id="25172"></path><path d="M953.344 691.712c-16.896 0-30.72 13.824-30.72 30.72V942.08c0 3.584-0.512 6.144-1.024 8.192h-410.624c-0.512-2.048-1.024-4.608-1.024-8.192v-260.608c0-3.584 0.512-6.144 1.024-8.192h244.224c16.896 0 30.72-13.824 30.72-30.72s-13.824-30.72-30.72-30.72h-252.416c-30.72 0-54.272 30.208-54.272 69.632V942.08c0 39.936 23.552 69.632 54.272 69.632h427.008c30.72 0 54.272-30.208 54.272-69.632v-219.648c0-16.896-13.824-30.72-30.72-30.72z" fill="#006699" p-id="25173"></path><path d="M1008.128 532.992c-11.776-11.776-31.232-11.776-43.52 0l-212.48 212.48c-11.776 11.776-11.776 31.232 0 43.52 6.144 6.144 13.824 9.216 21.504 9.216s15.872-3.072 21.504-9.216l212.48-212.48c12.288-12.288 12.288-31.232 0.512-43.52z" fill="#006699" p-id="25174"></path></svg>