<?xml version="1.0" standalone="no"?><!DOCTYPE svg PUBLIC "-//W3C//DTD SVG 1.1//EN" "http://www.w3.org/Graphics/SVG/1.1/DTD/svg11.dtd"><svg t="1599015695681" class="icon" viewBox="0 0 1024 1024" version="1.1" xmlns="http://www.w3.org/2000/svg" p-id="3059" xmlns:xlink="http://www.w3.org/1999/xlink" width="200" height="200"><defs><style type="text/css"></style></defs><path d="M530.944 77.312c6.712889 0 13.141333 2.702222 17.863111 7.480889 4.750222 4.807111 7.395556 11.292444 7.395556 18.090667v818.232888a25.713778 25.713778 0 0 1-7.395556 18.090667 25.144889 25.144889 0 0 1-17.863111 7.480889 20.992 20.992 0 0 1-6.826667 0l-231.822222-226.304-6.286222-6.371556-7.850667-5.632a125.297778 125.297778 0 0 0-64.199111-17.379555H101.205333a25.429333 25.429333 0 0 1-25.258666-25.6V358.599111c0-14.108444 11.292444-25.571556 25.258666-25.571555h112.753778a125.297778 125.297778 0 0 0 64.199111-17.351112l7.850667-4.636444 6.314667-6.371556 231.537777-227.328a20.992 20.992 0 0 1 7.111111 0z m0-76.714667a97.991111 97.991111 0 0 0-50.545778 14.307556L240.241778 249.400889c-7.68 4.579556-16.384 7.054222-25.287111 7.168H101.205333c-55.836444 0-101.12 45.795556-101.12 102.257778v306.602666c0 27.107556 10.666667 53.134222 29.639111 72.305778a100.522667 100.522667 0 0 0 71.480889 29.952h112.753778c8.903111 0.113778 17.635556 2.56 25.287111 7.168l241.152 234.24c15.246222 9.272889 32.711111 14.222222 50.545778 14.307556 55.836444 0 101.12-45.795556 101.12-102.286223V102.883556C632.035556 46.364444 586.780444 0.568889 530.944 0.568889z m341.248 460.259556H745.813333a38.115556 38.115556 0 0 0-37.916444 38.371555 38.115556 38.115556 0 0 0 37.916444 38.343112h126.378667a38.115556 38.115556 0 0 0 37.944889-38.343112 38.115556 38.115556 0 0 0-37.944889-38.371555zM863.601778 173.226667c-6.542222 0.056889-12.999111 1.820444-18.688 5.12l-109.710222 63.914666c-14.933333 8.704-22.186667 26.453333-17.692445 43.292445 4.522667 16.810667 19.683556 28.444444 36.892445 28.302222 6.570667-0.056889 12.999111-1.820444 18.716444-5.12l109.710222-63.914667c14.933333-8.704 22.186667-26.453333 17.664-43.292444-4.494222-16.810667-19.655111-28.444444-36.892444-28.302222z m-109.198222 511.402666a37.973333 37.973333 0 0 0-36.892445 28.302223 38.542222 38.542222 0 0 0 17.692445 43.292444l109.710222 63.914667c5.688889 3.299556 12.145778 5.063111 18.688 5.12a37.973333 37.973333 0 0 0 36.892444-28.302223 38.542222 38.542222 0 0 0-17.664-43.292444l-109.710222-62.634667a38.087111 38.087111 0 0 0-18.716444-5.12v-1.28z" p-id="3060" fill="#d81e06"></path></svg>