<?xml version="1.0" standalone="no"?><!DOCTYPE svg PUBLIC "-//W3C//DTD SVG 1.1//EN" "http://www.w3.org/Graphics/SVG/1.1/DTD/svg11.dtd"><svg class="icon" width="200px" height="200.00px" viewBox="0 0 1024 1024" version="1.1" xmlns="http://www.w3.org/2000/svg"><path fill="#333333" d="M614.4 512l387.657143-387.657143c29.257143-29.257143 29.257143-73.142857 0-102.4s-73.142857-29.257143-102.4 0L512 409.6 124.342857 21.942857C95.085714-7.314286 51.2-7.314286 21.942857 21.942857s-29.257143 73.142857 0 102.4L409.6 512 21.942857 899.657143c-29.257143 29.257143-29.257143 73.142857 0 102.4s73.142857 29.257143 102.4 0L512 614.4l387.657143 387.657143c29.257143 29.257143 73.142857 29.257143 102.4 0s29.257143-73.142857 0-102.4L614.4 512z"  /></svg>