<svg t="1573022890138" class="icon" viewBox="0 0 1024 1024" version="1.1" xmlns="http://www.w3.org/2000/svg" p-id="3383" width="128" height="128"><path d="M896.3 862.2h-95.8V698c55-14.2 95.8-63.8 95.8-123.2 0-70.5-57.2-127.7-127.7-127.7s-127.7 57.2-127.7 127.7c0 59.4 40.8 109 95.8 123.2v164.2H608.9V159.7h36.3c15.1 0 27.5-12.4 27.5-27.5v-8.8c0-15.1-12.4-27.5-27.5-27.5H189.4c-15.1 0-27.5 12.4-27.5 27.5v8.8c0 15.1 12.4 27.5 27.5 27.5h36.3v702.5H130c-17.6 0-31.9 14.4-31.9 31.9 0 17.6 14.4 31.9 31.9 31.9h766.3c17.6 0 31.9-14.4 31.9-31.9 0-17.6-14.4-31.9-31.9-31.9zM704.7 574.8c0-35.3 28.6-63.9 63.9-63.9s63.9 28.6 63.9 63.9-28.6 63.9-63.9 63.9-63.9-28.6-63.9-63.9zM289.6 159.7H545v702.5H289.6V159.7z" fill="#bfbfbf" p-id="3384"></path><path d="M385.4 351.3h63.9c17.6 0 31.9-14.4 31.9-31.9s-14.4-31.9-31.9-31.9h-63.9c-17.6 0-31.9 14.4-31.9 31.9s14.3 31.9 31.9 31.9zM449.3 670.6h-63.9c-17.6 0-31.9 14.4-31.9 31.9 0 17.6 14.4 31.9 31.9 31.9h63.9c17.6 0 31.9-14.4 31.9-31.9s-14.4-31.9-31.9-31.9zM449.3 479h-63.9c-17.6 0-31.9 14.4-31.9 31.9 0 17.6 14.4 31.9 31.9 31.9h63.9c17.6 0 31.9-14.4 31.9-31.9S466.8 479 449.3 479z" fill="#bfbfbf" p-id="3385"></path></svg>