<svg t="1575698829714" class="icon" viewBox="0 0 1024 1024" version="1.1" xmlns="http://www.w3.org/2000/svg" p-id="4186" width="128" height="128"><path d="M544 384h256a32 32 0 0 1 32 32v448a32 32 0 0 1-32 32h-64v-112a16 16 0 0 0-16-16h-128a16 16 0 0 0-16 16V896h-128v-128a32 32 0 0 0-32-32h-64a32 32 0 0 0-32 32v128H224a32 32 0 0 1-32-32V160a32 32 0 0 1 32-32h288a32 32 0 0 1 32 32v224z m0 80v32a16 16 0 0 0 16 16h32a16 16 0 0 0 16-16v-32a16 16 0 0 0-16-16h-32a16 16 0 0 0-16 16z m0 160v32a16 16 0 0 0 16 16h32a16 16 0 0 0 16-16v-32a16 16 0 0 0-16-16h-32a16 16 0 0 0-16 16zM272 256a16 16 0 0 0 0 32h192a16 16 0 1 0 0-32h-192z m0 128a16 16 0 1 0 0 32h192a16 16 0 1 0 0-32h-192z m0 128a16 16 0 1 0 0 32h192a16 16 0 1 0 0-32h-192z m0 128a16 16 0 1 0 0 32h192a16 16 0 1 0 0-32h-192z m448-192a16 16 0 0 0-16 16v32a16 16 0 0 0 16 16h32a16 16 0 0 0 16-16v-32a16 16 0 0 0-16-16h-32z m0 160a16 16 0 0 0-16 16v32a16 16 0 0 0 16 16h32a16 16 0 0 0 16-16v-32a16 16 0 0 0-16-16h-32z" p-id="4187" fill="#cdcdcd"></path></svg>