<svg t="1588927044925" class="icon" viewBox="0 0 1024 1024" version="1.1" xmlns="http://www.w3.org/2000/svg" p-id="11019" width="128" height="128"><path d="M620.08 765.73c-0.08 0.48-0.14 1-0.24 1.44 0-0.24 0.1-0.46 0.14-0.68a1.94 1.94 0 0 0 0-0.24c0.02-0.16 0.07-0.33 0.1-0.52zM620.08 765.73v-0.31c0.03 0.1 0.01 0.21 0 0.31z" fill="#8a8a8a" p-id="11020"></path><path d="M502 469.22c-111.62 0-202.1-90.49-202.1-202.11S390.33 65 502 65s202.11 90.49 202.11 202.11S613.57 469.22 502 469.22z" p-id="11021" fill="#8a8a8a"></path><path d="M572.14 715a225.33 225.33 0 0 1 81.07-106.62c36.44-26.16 81.49-39.76 126.21-39.92a244.09 244.09 0 0 1 36.8 3.2c1.51 0.24 3 0.5 4.53 0.77a423.2 423.2 0 0 0-162.6-117.66 234.67 234.67 0 0 1-137.79 61.85h-0.6c-1.53 0.14-3.07 0.27-4.61 0.38l-1 0.07c-1.41 0.1-2.83 0.18-4.24 0.25l-1.2 0.06c-1.43 0.06-2.85 0.11-4.28 0.14h-1.08q-2.65 0.06-5.31 0.06t-5.31-0.06h-1.08c-1.43 0-2.85-0.08-4.27-0.14l-1.2-0.06c-1.42-0.07-2.83-0.15-4.25-0.25l-1-0.07c-1.54-0.11-3.07-0.24-4.61-0.38h-0.6a234.67 234.67 0 0 1-137.79-61.85 424.1 424.1 0 0 0-261 441.92l279.79 0.8v0.8l141.34-0.4 91.06 0.26C557.8 843.27 550.24 775.16 572.14 715z" p-id="11022" fill="#8a8a8a"></path><path d="M779.32 617.62A170.69 170.69 0 1 0 950 788.31a170.69 170.69 0 0 0-170.68-170.69z m113.59 133.53l-12.45 13.67-86.64 95.08c-9.2 10.1-24.54 8.24-33.94 0l-8.94-7.83-62.11-54.44c-10.08-8.83-8.31-24.88 0-33.94 9.17-10 24.51-8.27 33.95 0l8.93 7.84L775 809.42q42-46.09 84-92.21c9-9.91 24.73-8.46 33.94 0 9.83 9.05 8.43 24.66-0.03 33.94z" p-id="11023" fill="#8a8a8a"></path></svg>