<svg t="1573474015389" class="icon" viewBox="0 0 1024 1024" version="1.1" xmlns="http://www.w3.org/2000/svg" p-id="16789" width="128" height="128"><path d="M530.5 853h-355c-49.6 0-90-40.4-90-90V261.4c0-49.6 40.4-90 90-90H848c49.6 0 90 40.4 90 90v253.2c0 16.6-13.4 30-30 30s-30-13.4-30-30V261.4c0-16.5-13.5-30-30-30H175.5c-16.5 0-30 13.5-30 30V763c0 16.5 13.5 30 30 30h354.9c16.6 0 30 13.4 30 30s-13.4 30-29.9 30zM319.3 565.3v-34.1H205.1c-7.9-0.8-11.8-6.3-11.8-16.5 0.8-9.4 5.1-14.5 13-15.3h252c7.1 0.8 11.4 5.9 13 15.3-0.8 10.2-4.7 15.7-11.8 16.5h-106v47.1c0.8 23.5-19.6 30.6-61.2 21.2-8.6-2.4-13.4-7.9-14.1-16.5 0.8-8.6 5.1-13.3 13-14.1 1.6 0 4.7 0.4 9.4 1.2 13.2 1.5 19.5 0 18.7-4.8z m-113-200.1c-7.1-0.8-11-6.3-11.8-16.5 0.8-9.4 4.7-14.5 11.8-15.3h252c7.8 0.8 12.2 5.9 13 15.3-0.8 10.2-5.1 15.7-13 16.5h-73v13h48.3c12.5 0 18.8 5.1 18.8 15.3v40c0 11.8-6.3 17.7-18.8 17.7H229.8c-14.1 0.8-20.8-4.7-20-16.5V397c0-13.3 5.9-19.6 17.7-18.8h51.8v-13h-73z m-1.2 206c1.6-0.8 8.2-5.5 20-14.1 15.7-11 24.3-16.9 25.9-17.7 9.4-4.7 16.9-3.1 22.4 4.7 4.7 7.9 3.5 15.3-3.5 22.4-11 7.8-27.1 18.4-48.3 31.8-9.4 4.7-16.9 3.1-22.4-4.7-4.7-9.4-2.7-16.9 5.9-22.4z m20-83.6c-7.1-0.8-10.6-5.5-10.6-14.1 0.8-8.6 4.7-13 11.8-13h210.8c14.1 8.6 14.1 17.7 0 27.1h-212z m16.5-81.2v15.3h37.7v-15.3h-37.7z m70.7-28.3H350v-13h-37.7v13z m0 42.4H350v-14.1h-37.7v14.1z m122.4 173.1c-30.6-15.7-47.9-25.1-51.8-28.3-6.3-6.3-7.5-13.7-3.5-22.4 5.5-7.1 12.5-9 21.2-5.9 22.8 10.2 40 19.6 51.8 28.3 9.4 5.5 11.8 13 7.1 22.4-6.4 8.6-14.6 10.6-24.8 5.9z m-49.4-173.1h35.3v-14.1h-35.3v14.1z m424.3-27h-264c-16.6 0-30-13.4-30-30s13.4-30 30-30h264c16.6 0 30 13.4 30 30s-13.5 30-30 30z m0 112.5h-264c-16.6 0-30-13.4-30-30s13.4-30 30-30h264c16.6 0 30 13.4 30 30s-13.5 30-30 30z m125 273.3c-11.6-7.9-18.6-21.2-18.6-35.2 0-14 6.9-27.1 18.3-35l13.3-9.3-5.5-15.2c-7.4-20.7-18.5-39.8-33-56.5L898.6 616l-14.5 6.8c-5.7 2.6-11.7 4-18 4-22.2 0-40.5-16.6-42.5-38.7l-1.5-16-15.8-3c-21.5-4-43.9-4-65.4 0l-15.8 3-1.5 16c-2 22.1-20.3 38.7-42.5 38.7-6.2 0-12.4-1.4-18-4l-14.5-6.8-10.3 12c-14.5 16.7-25.5 35.8-33 56.5l-5.5 15.2 13.3 9.3c11.5 8 18.3 21.2 18.3 35 0 14.1-7 27.3-18.6 35.2l-13.3 9.1 5.3 15.3c7.2 20.7 18.1 39.8 32.4 56.6l10.6 12.5 14.8-7.2c5.8-2.9 12.1-4.2 18.6-4.2 22.4 0 41.1 17.5 42.6 39.8l1.1 16.4 16.2 3c10.7 2 21.7 3 32.6 3 10.9 0 21.9-1 32.6-3l16.2-3 1.1-16.4c1.5-22.3 20.2-39.8 42.6-39.8 6.6 0 12.8 1.5 18.6 4.2l14.8 7.2 10.6-12.5c14.3-16.8 25.2-35.9 32.4-56.6l5.3-15.3-13.3-9z m-48 42.3a86.9 86.9 0 0 0-20.4-2.4c-38.5 0-71.6 26-81.8 61.8-7.1 0.5-14.3 0.5-21.4 0-10.2-35.8-43.3-61.8-81.8-61.8-7 0-13.7 0.8-20.4 2.4-4-5.9-7.6-12.2-10.7-18.6 15-15.7 23.7-36.7 23.7-58.8 0-21.9-8.5-42.7-23.2-58.3 3.2-6.7 6.9-13 11.1-19 6.3 1.5 12.9 2.2 19.5 2.2 21.4 0 41.8-7.9 57.4-22.3 11.3-10.4 19.5-23.4 23.8-37.8 7.4-0.6 14.8-0.6 22.2 0 4.4 14.4 12.6 27.4 23.8 37.8 15.8 14.4 36.1 22.3 57.4 22.3 6.7 0 13.1-0.7 19.5-2.2 4.2 6 7.9 12.4 11.1 19-14.7 15.7-23.2 36.5-23.2 58.3 0 22.2 8.7 43.2 23.7 58.8-2.6 6.4-6.2 12.7-10.3 18.6z m-112.8-152c-41.5 0-75.3 33.7-75.3 75.3 0 41.5 33.7 75.3 75.3 75.3 41.6 0 75.3-33.7 75.3-75.3 0-41.6-33.9-75.3-75.3-75.3z m0 108.2c-18.2 0-33-14.8-33-33s14.8-33 33-33 33 14.8 33 33-14.8 33-33 33z m0 0" p-id="16790" fill="#bfbfbf"></path></svg>