<?xml version="1.0" standalone="no"?><!DOCTYPE svg PUBLIC "-//W3C//DTD SVG 1.1//EN" "http://www.w3.org/Graphics/SVG/1.1/DTD/svg11.dtd"><svg class="icon" width="128px" height="128.00px" viewBox="0 0 1024 1024" version="1.1" xmlns="http://www.w3.org/2000/svg"><path fill="#006699" d="M896 405.333333v128c0 34.133333-29.866667 64-64 64S768 567.466667 768 533.333333v-128c0-17.066667 8.533333-34.133333 17.066667-42.666666C733.866667 251.733333 640 170.666667 516.266667 170.666667H512c-128 0-221.866667 81.066667-273.066667 192 8.533333 8.533333 17.066667 25.6 17.066667 42.666666v128c0 34.133333-29.866667 64-64 64S128 567.466667 128 533.333333v-128C128 371.2 157.866667 341.333333 192 341.333333h4.266667c51.2-123.733333 174.933333-213.333333 315.733333-213.333333s264.533333 89.6 315.733333 213.333333h4.266667c34.133333 0 64 29.866667 64 64zM896 896H128c0-98.133333 170.666667-213.333333 384-213.333333s384 115.2 384 213.333333z m-59.733333-42.666667c-42.666667-59.733333-170.666667-128-324.266667-128s-281.6 68.266667-324.266667 128h648.533334zM512 682.666667c-119.466667 0-213.333333-93.866667-213.333333-213.333334s93.866667-213.333333 213.333333-213.333333 213.333333 93.866667 213.333333 213.333333-93.866667 213.333333-213.333333 213.333334z m170.666667-213.333334c0-93.866667-76.8-170.666667-170.666667-170.666666s-170.666667 76.8-170.666667 170.666666 76.8 170.666667 170.666667 170.666667 170.666667-76.8 170.666667-170.666667z"  /></svg>