<?xml version="1.0" standalone="no"?><!DOCTYPE svg PUBLIC "-//W3C//DTD SVG 1.1//EN" "http://www.w3.org/Graphics/SVG/1.1/DTD/svg11.dtd"><svg class="icon" width="200px" height="200.00px" viewBox="0 0 1024 1024" version="1.1" xmlns="http://www.w3.org/2000/svg"><path d="M203.0592 0h617.8816C956.3136 0 1024 67.6864 1024 203.0592v617.8816C1024 956.3136 956.3136 1024 820.9408 1024H203.0592C67.6864 1024 0 956.3136 0 820.9408V203.0592C0 67.6864 67.6864 0 203.0592 0z" fill="#FFC300" /><path d="M431.2064 320.2048H389.12c-7.68 22.7328-10.24 31.8464-10.24 31.8464H215.04s-2.4576-9.1136-10.24-31.8464h-41.984v31.8464H112.64v38.0928h160.3584v31.4368H120.5248v40.96h152.4736V491.52H120.5248v40.96h152.4736v29.5936H112.64v40.3456h145.408s-40.96 52.6336-147.1488 57.4464v43.008s115.3024 11.1616 186.0608-81.2032c0 0 48.2304 79.5648 184.32 81.3056v-44.6464s-91.3408 2.7648-144.2816-56.0128H481.28v-40.3456H322.1504V532.48H473.6v-40.96H322.1504v-28.9792H473.6v-40.96H322.1504V390.144H481.28v-38.0928h-50.176l0.1024-31.8464z m195.6864 310.5792h48.9472a516.511289 516.511289 0 0 0 52.0192-164.6592h42.5984v103.5264a412.0576 412.0576 0 0 1-6.8608 61.44h45.1584c3.413333-20.303644 5.165511-40.851911 5.2224-61.44V466.1248h29.3888v-39.936H814.08v-33.1776h-43.52v33.3824h-157.4912v39.936h68.8128a437.959111 437.959111 0 0 1-54.9888 164.4544z" fill="#000000" /><path d="M542.72 328.3968v375.3984h317.44a53.76 53.76 0 0 0 53.6576-53.76V328.3968H542.72z m329.728 321.6384a13.0048 13.0048 0 0 1-12.9024 13.1072H583.68V368.64h288.768v281.3952z" fill="#000000" /></svg>