<?xml version="1.0" standalone="no"?><!DOCTYPE svg PUBLIC "-//W3C//DTD SVG 1.1//EN" "http://www.w3.org/Graphics/SVG/1.1/DTD/svg11.dtd"><svg t="1595320006633" class="icon" viewBox="0 0 1024 1024" version="1.1" xmlns="http://www.w3.org/2000/svg" p-id="2134" xmlns:xlink="http://www.w3.org/1999/xlink" width="128" height="128"><defs><style type="text/css"></style></defs><path d="M813.269862 1024 210.726144 1024C136.831263 1024 76.8 964.301158 76.8 890.80023L76.8 491.49952C76.8 418.097715 136.832594 358.400102 210.726144 358.400102L245.471831 358.400102C241.913293 341.799526 239.999416 324.700979 239.999416 307.199744L239.999416 255.999386C239.999416 114.59968 361.762575 0 512.000666 0 662.184115 0 784.000563 114.59968 784.000563 255.999386L784.000563 307.199744C784.000563 324.699699 782.085376 341.799526 778.526822 358.400102L813.269862 358.400102C887.114086 358.400102 947.2 418.098995 947.2 491.49952L947.2 890.80023C947.2 964.301158 887.114086 1024 813.269862 1024L813.269862 1024ZM457.599084 702.800026 457.599084 819.201024C457.599084 847.39968 481.985034 870.400102 512.000666 870.400102 542.014966 870.400102 566.399585 847.39968 566.399585 819.201024L566.399585 702.800026C599.387325 685.199718 621.859395 652.399923 621.859395 614.400768 621.859395 557.800243 572.666332 512 512.000666 512 451.277691 512 402.083292 557.800243 402.083292 614.400768 402.083292 652.399923 424.608676 685.199718 457.599084 702.800026L457.599084 702.800026ZM675.200082 255.999386C675.200082 171.150029 602.154184 102.398259 512.000666 102.398259 421.847148 102.398259 348.798582 171.148749 348.798582 255.999386L348.798582 358.400102 675.200082 358.400102 675.200082 255.999386 675.200082 255.999386Z" fill="#006699" p-id="2135"></path></svg>