<?xml version="1.0" standalone="no"?><!DOCTYPE svg PUBLIC "-//W3C//DTD SVG 1.1//EN" "http://www.w3.org/Graphics/SVG/1.1/DTD/svg11.dtd"><svg class="icon" width="200px" height="200.00px" viewBox="0 0 1024 1024" version="1.1" xmlns="http://www.w3.org/2000/svg"><path d="M157.515279 0h708.969342A157.414887 157.414887 0 0 1 1023.9999 156.410965v711.17797A157.414887 157.414887 0 0 1 866.484621 1023.9999H157.515279A157.414887 157.414887 0 0 1 0 867.588935V156.410965A157.414887 157.414887 0 0 1 157.515279 0z" fill="#D81E06" /><path d="M330.290164 184.018805c0-17.367841 17.367841-31.221958 31.221957-24.294899 17.267449 0 34.534899 17.367841 24.194508 31.221958L371.450944 350.067417c0 17.367841-17.267449 34.635291-34.635291 24.194507-17.267449 0-31.121566-17.267449-24.194507-31.121565z m-172.97567-24.294899c17.267449 0 34.635291 6.927058 34.635291 24.294899l17.267449 155.708221c0 17.267449-6.927058 31.121566-24.194507 31.121565a45.176466 45.176466 0 0 1-41.562349-24.194507l-20.781174-152.294887a32.627448 32.627448 0 0 1 34.63529-34.635291z m24.194508 674.836012c0 17.267449-17.267449 31.121566-31.121566 24.194508a37.245487 37.245487 0 0 1-34.63529-34.534899l24.194507-287.221933c0-17.367841 17.367841-24.2949 31.221958-24.294899s31.121566 17.367841 24.194507 31.121565c3.413333 3.513725-13.854116 290.735658-13.854116 290.735658zM361.411729 858.754426c-17.367841 0-34.635291-6.927058-34.63529-24.194508l-24.094116-287.221932a37.245487 37.245487 0 0 1 34.534899-34.635291c17.367841 0 31.121566 6.927058 31.121565 24.294899l24.2949 287.221933A31.824311 31.824311 0 0 1 361.411729 858.754426z m10.039215-387.513688h-82.622737v429.076036a33.530977 33.530977 0 0 1-31.221958 31.121566 36.94431 36.94431 0 0 1-34.534898-31.121566V471.240738h-83.124698a34.233722 34.233722 0 0 1-31.121566-34.635291 31.021173 31.021173 0 0 1 31.121566-31.121565h83.124698V128.60234a37.245487 37.245487 0 0 1 34.534898-34.63529 34.233722 34.233722 0 0 1 31.221958 34.63529v276.881542H371.450944a37.044702 37.044702 0 0 1 34.635291 31.121565c-3.112157 27.708233-20.379606 34.635291-34.635291 34.635291z m533.283085 404.881529V883.450894A40.156859 40.156859 0 0 1 863.372464 924.511282c-24.2949 0-31.221958-17.267449-31.221957-41.461957V709.973264A18.371763 18.371763 0 0 0 814.782665 692.705814H755.952867v197.170177a34.434506 34.434506 0 0 1-24.194507 31.221958c-17.367841 0-24.194507-17.367841-24.194508-31.221958V692.705814h-58.829798v197.170177a34.534899 34.534899 0 0 1-24.2949 31.221958c-17.267449 0-24.194507-17.367841-24.194507-31.221958V692.705814h-72.683914a18.472155 18.472155 0 0 0-17.26745 17.26745v190.745079a25.599997 25.599997 0 0 1-24.294899 24.194507h-17.26745c-17.267449 0-17.267449-6.927058-24.194507-17.267449-6.927058-6.927058-6.927058-17.367841-6.927058-48.489407V654.657191a62.343523 62.343523 0 0 1 17.267449-24.2949c6.927058 0 17.367841-6.927058 34.635291-6.927058h131.513712l17.26745-48.389015v-17.367841H471.843091a35.940389 35.940389 0 0 1-24.2949-17.26745c0-6.927058 0-24.194507 6.927059-31.121565S461.803876 501.960735 471.843091 501.960735h401.568588c6.927058 0 24.194507 6.927058 24.194508 17.267449a42.666662 42.666662 0 0 1-6.927059 48.489407 32.72784 32.72784 0 0 1-24.194507 6.927059H700.636794l-17.367841 44.975681v17.26745h166.149003a56.922347 56.922347 0 0 1 41.461957 17.367841c6.927058 17.267449 6.927058 6.826666 6.927058 31.121566v190.745079zM558.682298 398.556824h6.927058a41.863525 41.863525 0 0 1 24.2949 24.194507c0 17.267449-6.927058 24.194507-24.2949 24.194508h-6.927058c-17.267449 0-24.194507-6.927058-24.194507-24.194508-6.927058-6.927058 10.340391-24.194507 24.194507-24.194507z m-31.121565-41.562349c0-17.267449 6.927058-24.194507 24.194507-24.194508h6.927058c17.367841-6.927058 31.221958 6.927058 31.221958 24.194508S582.977198 381.490159 565.609356 381.490159h-6.927058c-13.854116 0-31.121566-14.054901-31.121565-24.495684zM773.019532 398.556824h6.927058c17.367841 0 24.2949 6.927058 24.2949 24.194507s-6.927058 24.194507-24.2949 24.194508H773.019532c-17.267449 0-24.194507-6.927058-24.194507-24.194508A41.963917 41.963917 0 0 1 773.019532 398.556824z m-24.194507-41.562349c0-17.267449 6.927058-24.194507 24.194507-24.194508h6.927058c17.367841 0 24.2949 6.927058 24.2949 24.194508S797.515216 381.490159 780.147374 381.490159H773.019532c-6.625882 0-23.993723-14.054901-23.993723-24.495684z m162.635278-83.024306V381.490159c0 17.367841-6.927058 24.2949-24.194508 24.294899h-17.066665c-17.367841 0-24.2949-6.927058-24.294899-24.294899v-72.884699a21.483919 21.483919 0 0 0-13.854116-6.927058h-124.486263v138.340378a37.044702 37.044702 0 0 1-31.221958 34.635291 34.13333 34.13333 0 0 1-31.121565-34.635291V301.678402H520.633674a18.472155 18.472155 0 0 0-17.267449 17.267449v65.756856a35.739604 35.739604 0 0 1-17.367841 24.194508H451.764662c-17.669018-7.328627-24.596076-17.367841-24.596076-24.194508V267.043111c0-17.267449 6.927058-24.194507 24.294899-24.194507h190.745079v-41.562349H510.293283a40.156859 40.156859 0 0 1-41.562349-41.562349c0-17.267449 17.267449-31.121566 34.635291-41.461957h346.051731c17.267449 0 31.121566 17.267449 31.121566 41.461957a40.156859 40.156859 0 0 1-41.562349 41.562349H700.636794v41.562349h190.243119a25.599997 25.599997 0 0 1 24.294899 24.194507v6.927058z" fill="#FFFFFF" /></svg>