<svg t="1573443993764" class="icon" viewBox="0 0 1024 1024" version="1.1" xmlns="http://www.w3.org/2000/svg" p-id="8924" width="128" height="128"><path d="M781.473684 107.789474a26.947368 26.947368 0 0 1 0-53.894737h26.947369a107.789474 107.789474 0 0 1 107.789473 107.789474v754.526315a107.789474 107.789474 0 0 1-107.789473 107.789474H215.578947a107.789474 107.789474 0 0 1-107.789473-107.789474V161.684211a107.789474 107.789474 0 0 1 107.789473-107.789474h26.947369a26.947368 26.947368 0 0 1 0 53.894737H215.578947a53.894737 53.894737 0 0 0-53.894736 53.894737v754.526315a53.894737 53.894737 0 0 0 53.894736 53.894737h592.842106a53.894737 53.894737 0 0 0 53.894736-53.894737V161.684211a53.894737 53.894737 0 0 0-53.894736-53.894737h-26.947369zM323.368421 754.526316h377.263158a26.947368 26.947368 0 0 1 0 53.894737H323.368421a26.947368 26.947368 0 0 1 0-53.894737z m0-161.684211h377.263158a26.947368 26.947368 0 0 1 0 53.894737H323.368421a26.947368 26.947368 0 0 1 0-53.894737z m0-161.68421h161.684211a26.947368 26.947368 0 0 1 0 53.894737H323.368421a26.947368 26.947368 0 0 1 0-53.894737z m80.842105-431.157895h215.578948a80.842105 80.842105 0 0 1 0 161.684211h-215.578948a80.842105 80.842105 0 0 1 0-161.684211z m0 53.894737a26.947368 26.947368 0 0 0 0 53.894737h215.578948a26.947368 26.947368 0 0 0 0-53.894737h-215.578948z" p-id="8925"></path></svg>