<?xml version="1.0" standalone="no"?><!DOCTYPE svg PUBLIC "-//W3C//DTD SVG 1.1//EN" "http://www.w3.org/Graphics/SVG/1.1/DTD/svg11.dtd"><svg class="icon" width="200px" height="200.00px" viewBox="0 0 1024 1024" version="1.1" xmlns="http://www.w3.org/2000/svg"><path fill="#008CD7" d="M909.088 0H115.04C51.696 0 0 51.696 0 115.04v793.952C0 972.336 51.696 1024 115.04 1024h793.936C972.32 1024 1024 972.336 1024 909.008V115.04C1024.128 51.696 972.432 0 909.088 0z m-61.744 783.072h-40.032l20.032-20.016 3.312-63.344-10.064-50.08-23.344-43.328-54.192-57.536c-5.84-5.824-15.904-4.128-19.216 3.312l-13.248 60.032v34.192c0 5.84-2.528 10.88-6.656 15.008l-33.376 30.88-36.72 60.016-1.712 7.552c-0.784 7.568-7.536 12.464-14.976 12.464h-30.88l30.064-26.64 43.344-73.424 13.376-53.392V558.72l-3.312-43.344 1.712-16.688a18.432 18.432 0 0 0-18.32-20h-45.024c-3.312 0-5.84 0.816-9.152 1.696l-75.936 34.992h-16.688c-10.88 0-20.016 9.152-20.016 20.032v170.944l10.08 10.064v13.376l-13.392 6.656v36.688h-36.72l16.704-16.688v-36.72l-83.344-89.184c-4.128-5.008-6.64-11.664-5.84-18.288l1.712-13.376c0.8-4.128 1.696-7.568 5.008-10.88l19.216-22.528 20.016-26.64 13.376-40.016-30.32-36.816-66.656-3.344-36.72-10.032-53.392-50.096-33.376-36.72-6.624-16.688-1.712-10.864a21.936 21.936 0 0 0-13.376-18.304c-1.712-0.8-2.512-0.8-4.128-0.8H158.496l-30.08-6.64-5.008-5.84a25.584 25.584 0 0 1-4.112-23.328c1.696-5.024 5.008-8.336 9.12-10.864l14.992-8.352s22.528-2.512 34.192-0.784c1.696 0 4.112 0 5.808-0.8l13.392-7.552c4.112-1.712 8.336-3.328 12.464-2.512l35.888 1.712c10.88 0.8 19.216 8.352 20.816 19.216l4.112 25.84 16.688 46.64 33.392 30.096h56.736l23.312-13.376 50.096-50.096 70.096-3.312 5.824-14.992c4.096-10.864 14.976-16.688 26.672-14.992l4.096 0.8 13.376-13.376 9.152-17.488a4.48 4.48 0 0 1 4.128-2.528c5.024 0 9.12 2.528 11.664 6.64l2.528 4.112c5.808 9.152 17.472 12.464 26.624 7.552l26.624-14.176c4.128-2.512 9.184-2.512 14.192-0.8l2.528 0.8c4.096 1.712 7.536 5.024 9.152 9.152l4.096 10.064 8.336 2.512c9.152 2.528 12.464 12.464 7.568 20.016l-3.312 5.024 10.88 37.504c1.68 5.824 5.808 10.848 10.848 14.192l37.504 22.512c3.344 1.696 5.84 4.112 7.568 7.552l31.664 45.04c3.312 5.04 5.84 10.864 5.84 16.704l9.152 88.384 16.688 18.304a10.96 10.96 0 0 1-6.624 18.288v13.376l32.464 41.744c2.528 3.312 4.128 7.536 4.128 12.464l-6.416 153.488z m0 0"  /></svg>