<?xml version="1.0" encoding="utf-8"?>
<svg version="1.1" xmlns:xlink="http://www.w3.org/1999/xlink" width="54px" height="75px" xmlns="http://www.w3.org/2000/svg">
  <g transform="matrix(1 0 0 1 -191 -71 )">
    <path d="M 34.85189189189189 56.953125  C 35.31891891891892 57.421875  35.55243243243243 57.96874999999999  35 58.59375  L 35 72.65625  C 35.55243243243243 73.28125  35.31891891891892 73.828125  34.85189189189189 74.296875  C 34.384864864864866 74.765625  33.84 75  33.2172972972973 75  L 19.206486486486487 75  C 18.583783783783787 75  18.038918918918924 74.765625  17.57189189189189 74.296875  C 17.104864864864865 73.828125  16.87135135135135 73.28125  17 72.65625  L 17 58.59375  C 16.87135135135135 57.96874999999999  17.104864864864865 57.421875  17.57189189189189 56.953125  C 18.038918918918924 56.484375  18.583783783783787 56.25  19.206486486486487 56  L 33.2172972972973 56  C 33.84 56.25  34.384864864864866 56.484375  34.85189189189189 56.953125  Z M 51.60648648648649 14.150390625000004  C 53.20216216216217 17.099609374999993  54.000000000000014 20.195312499999993  54 23.4375  C 54.000000000000014 25.546874999999996  53.698378378378386 27.51953125  53.09513513513513 29.355468749999996  C 52.491891891891896 31.191406249999993  51.81081081081081 32.685546875  51.05189189189189 33.837890625  C 50.292972972972976 34.990234375  49.22270270270271 36.15234375  47.841081081081086 37.32421875  C 46.459459459459474 38.49609375  45.340540540540545 39.345703125  44.48432432432433 39.873046875  C 43.628108108108115 40.400390625  42.44108108108108 41.09374999999999  40.92324324324324 41.953125  C 39.32756756756757 42.85156249999999  37.994594594594595 44.12109375  36.924324324324324 45.76171875  C 35.85405405405406 47.40234375  35.31891891891892 48.71093749999999  35.31891891891892 49.6875  C 35.31891891891892 50.35156249999999  35.08540540540541 50.98632812499999  34.61837837837838 51.591796875  C 34.15135135135135 52.19726562500001  33.60648648648649 52.5  32.983783783783785 52  L 18.972972972972975 52  C 18.389189189189192 52.5  17.892972972972977 52.13867187500001  17.484324324324326 51.416015625  C 17.075675675675676 50.69335937499999  16.87135135135135 49.96093749999999  16.87135135135135 49.21875  L 16.87135135135135 46.58203125  C 16.87135135135135 43.33984375  18.136216216216212 40.283203125  20.665945945945946 37.412109375  C 23.19567567567568 34.541015625  25.97837837837838 32.421875  29.01405405405405 31.0546875  C 31.310270270270273 29.999999999999993  32.94486486486486 28.906249999999996  33.91783783783784 27.773437500000004  C 34.89081081081081 26.640625  35.3772972972973 25.156249999999993  35.3772972972973 23.3203125  C 35.3772972972973 21.679687499999993  34.472432432432434 20.234375  32.6627027027027 18.984375000000004  C 30.852972972972974 17.734375  28.761081081081088 17.109375  26.387027027027028 17.109375  C 23.8572972972973 17.109375  21.755675675675676 17.675781249999993  20.08216216216216 18.808593749999996  C 18.72 19.78515625  16.63783783783784 22.031249999999996  13.835675675675676 25.546874999999996  C 13.329729729729731 26.171874999999993  12.726486486486486 26.484374999999993  12.025945945945946 26.484375  C 11.55891891891892 26.484374999999993  11.072432432432434 26.328124999999993  10.566486486486486 26.015625000000004  L 0.9924324324324324 18.691406250000004  C 0.48648648648648707 18.300781249999993  0.18486486486486597 17.812500000000004  0.08756756756756756 17.226562500000004  C -0.009729729729729176 16.640625000000004  0.09729729729729757 16.09375  0.40864864864864864 15.585937499999996  C 6.635675675675677 5.195312499999988  15.664864864864867 0  27.49621621621622 0  C 30.609729729729736 0  33.7427027027027 0.6054687499999989  36.895135135135135 1.8164062499999967  C 40.04756756756757 3.0273437499999947  42.888648648648655 4.648437499999994  45.41837837837838 6.6796875000000036  C 47.94810810810811 8.710937499999988  50.01081081081082 11.201171874999988  51.60648648648649 14.150390625000004  Z " fill-rule="nonzero" fill="#d9001b" stroke="none" transform="matrix(1 0 0 1 191 71 )" />
  </g>
</svg>