<svg xmlns="http://www.w3.org/2000/svg" viewBox="0 0 76 75" width="76" height="75">
	<style>
		tspan { white-space:pre }
		.shp0 { fill: #037eb4 } 
		.shp1 { fill: #f2a8b1 } 
	</style>
	<g id="#ffffffff">
	</g>
	<g id="#037eb4ff">
		<path id="Layer" class="shp0" d="M6.58 0L57.56 0C60 0.62 62.89 2.03 62.9 4.95C63.21 12.29 62.86 19.65 63.09 27C61.68 26.11 59.33 25.84 59.2 23.8C58.64 17.6 59.25 11.35 58.87 5.13C40.96 4.9 23.03 4.94 5.11 5.11C4.9 26.71 4.99 48.33 5.06 69.94C11.73 70.12 18.4 69.87 25.07 70.01C26.99 69.76 28.35 71.2 29.75 72.25C29.32 72.94 28.48 74.31 28.06 75L6.43 75C3.01 74.46 0.39 71.82 0 68.35L0 6.47C0.56 3.08 3.16 0.48 6.58 0Z" />
		<path id="Layer" class="shp0" d="M11.17 18.32C11.77 16.69 13.59 17.11 14.95 16.99C26.82 16.99 38.7 17.03 50.57 16.98C50.97 18.87 50.56 20.64 49.24 22.07C37.13 21.94 25.02 21.98 12.91 22.05C12.26 20.86 11.04 19.79 11.17 18.32Z" />
		<path id="Layer" class="shp0" d="M11.53 34.55C15.93 33.49 20.57 34.03 25.06 34.11C26.67 34.01 27.28 35.71 27.16 37.04C26.04 38.15 24.42 37.96 22.99 38.02C19.14 38.04 15.29 37.98 11.44 38.01C11.43 36.86 11.39 35.7 11.53 34.55Z" />
		<path id="Layer" class="shp0" d="M12.25 51.29C15.57 51.24 20.5 49.52 22.64 52.86C22.31 56.94 16.83 55.21 13.99 55.46C11.34 55.94 10.1 52.77 12.25 51.29Z" />
	</g>
	<g id="#f2a8b1ff">
		<path id="Layer" class="shp1" d="M39.54 33.52C47.7 27.55 59.82 27.89 67.58 34.4C72.43 38.19 75.18 44.08 76 50.09L76 55.37C74.89 58.5 73.47 61.5 71.99 64.47C69.79 60.21 67.71 55.89 65.64 51.57C67.45 51.51 69.26 51.45 71.08 51.4C70.16 47.8 69.58 43.9 67.2 40.9C63.67 36.29 57.71 33.87 51.96 34.26C44.91 34.43 38.08 39.25 36.11 46.12C33.62 53.79 36.86 63.12 44.27 66.74C51.59 70.79 60.74 68.65 66.81 63.31C67.52 64.88 68.24 66.45 68.96 68.01C64.56 71.11 59.62 73.94 54.07 73.95C43.67 74.72 33.41 67.39 30.85 57.27C28.43 48.54 32.11 38.65 39.54 33.52Z" />
		<path id="Layer" class="shp1" d="M44.51 42.83C43.98 41.88 45.79 39.44 46.99 40.47C49.4 41.82 51.14 44.04 53.07 45.96C54.95 44.01 56.73 41.9 59.01 40.4C60.22 39.83 62.17 41.72 61.53 42.81C60.28 45.2 58.15 46.94 56.23 48.76C58.53 49.3 63.27 48.3 62.77 52.04C60.8 54.01 57.67 53.17 55.15 53.51C55.14 54.19 55.11 55.54 55.09 56.22C57.69 56.67 61.24 55.5 62.99 58.02C62.78 61.89 58.06 60.35 55.45 60.9C55.14 62.78 54.91 64.68 54.38 66.52C53.48 66.56 52.6 66.53 51.71 66.42C51.06 64.65 50.86 62.76 50.54 60.91C47.98 60.38 43.19 61.8 43.16 57.92C45.08 55.67 48.32 56.56 50.91 56.23C50.89 55.55 50.86 54.19 50.85 53.52C48.61 53.41 46.35 53.41 44.14 52.98C43.16 52.17 43.29 50.96 43.64 49.89C45.52 48.9 47.72 49.05 49.77 48.75C47.85 46.95 45.74 45.21 44.51 42.83Z" />
	</g>
</svg>