<svg t="1585048790654" class="icon" viewBox="0 0 1024 1024" version="1.1" xmlns="http://www.w3.org/2000/svg" p-id="6191" width="128" height="128"><path d="M594.091983 942.008007c0 45.295577-36.696416 81.991993-81.991993 81.991993s-81.991993-36.696416-81.991993-81.991993h163.983986z" fill="#2c2c2c" p-id="6192"></path><path d="M512.09999 51.394981c17.298311 0 34.296651 1.299873 50.89503 3.699639 0.09999-1.199883 0.399961-2.399766 0.399961-3.699639 0-28.297237-22.997754-51.294991-51.294991-51.294991-28.297237 0-51.294991 22.997754-51.29499 51.294991 0 1.299873 0.299971 2.399766 0.39996 3.699639 16.598379-2.399766 33.596719-3.699639 50.89503-3.699639zM512.09999 119.08837c12.098818 0 24.597598 0.799922 36.996387 2.299776 1.799824 0.499951 3.699639 0.899912 5.699444 1.199883 139.286398 22.297822 244.276145 152.98506 244.276145 304.070305v268.973733c0 28.297237 22.997754 51.294991 51.29499 51.294991h29.6971c40.096084 0 72.792891 32.596817 72.792892 72.792891v35.496534c0 8.199199-6.599356 14.798555-14.798555 14.798555H86.041598c-8.199199 0-14.798555-6.599356-14.798555-14.798555v-35.496534c0-40.096084 32.596817-72.792891 72.792891-72.792891h29.6971c28.297237 0 51.294991-22.997754 51.294991-51.294991v-268.973733c0-151.085246 104.989747-281.772483 244.276145-304.070305 1.899814-0.299971 3.799629-0.699932 5.699443-1.199883 12.498779-1.499854 24.997559-2.299775 37.096377-2.299776m0-51.195c-17.298311 0-34.296651 1.299873-50.89503 3.699638 0 0.19998 0.09999 0.299971 0.099991 0.499952C298.620838 97.990431 173.833024 246.875891 173.833024 426.658334v268.973733H144.035934c-68.493311 0-123.987892 55.494581-123.987892 123.987892v35.496534c0 36.496436 29.59711 66.093546 66.093546 66.093545h852.016795c36.496436 0 66.093546-29.59711 66.093546-66.093545v-35.496534c0-68.493311-55.494581-123.987892-123.987892-123.987892h-29.6971v-268.973733C850.366956 246.875891 725.579143 97.990431 562.89503 71.992969c0-0.19998 0.09999-0.299971 0.09999-0.499951-16.598379-2.299775-33.596719-3.599648-50.89503-3.599648z" fill="#2c2c2c" p-id="6193"></path><path d="M322.318524 353.865443h40.995996v204.979982h-40.995996zM322.318524 598.141588h40.995996v61.493994h-40.995996z" fill="#2c2c2c" p-id="6194"></path></svg>