<svg t="1572338490288" class="icon" viewBox="0 0 1024 1024" version="1.1" xmlns="http://www.w3.org/2000/svg" p-id="5757" width="128" height="128"><path d="M819.2 819.2h204.8v-102.4h-204.8zM716.8 307.2v102.4h307.2V307.2z m51.2 307.2h256v-102.4h-256z m-244.224-61.952a256 256 0 1 0-330.752 0A358.4 358.4 0 0 0 0 870.4a339.456 339.456 0 0 0 4.096 51.2h102.4A280.064 280.064 0 0 1 102.4 870.4a256 256 0 0 1 512 0 280.064 280.064 0 0 1-5.12 51.2h102.4a339.456 339.456 0 0 0 5.12-51.2 358.4 358.4 0 0 0-193.024-317.952zM358.4 512a153.6 153.6 0 1 1 153.6-153.6 153.6 153.6 0 0 1-153.6 153.6z" fill="#bfbfbf" p-id="5758"></path></svg>