<?xml version="1.0" standalone="no"?><!DOCTYPE svg PUBLIC "-//W3C//DTD SVG 1.1//EN" "http://www.w3.org/Graphics/SVG/1.1/DTD/svg11.dtd"><svg class="icon" width="128px" height="128.00px" viewBox="0 0 1024 1024" version="1.1" xmlns="http://www.w3.org/2000/svg"><path fill="#006699" d="M846.998215 909.075551 174.91424 909.075551 174.91424 539.78788l278.307563-273.862321c4.869914-6.042623 27.929096-29.740348 62.065568-29.740348 21.723767 0 42.455951 10.159384 61.549821 29.309536l270.074042 274.804786 0 368.774995L846.998215 909.074527zM217.757001 866.249163l585.965595 0L803.722596 557.710065 546.148239 295.235095c-10.689457-10.691503-21.164019-16.303314-30.773887-16.303314-16.810874 0-29.740348 14.910595-29.740348 14.910595l-1.810229 1.823532L217.757001 557.6282 217.757001 866.249163 217.757001 866.249163zM958.500729 507.120876 590.155523 141.785214c0 0-71.765487-69.12638-161.373341 13.272281L62.074266 505.563404c0 0-4.653997 55.69037 54.006008 32.320103L449.470363 208.433146c0 0 55.515385-59.479673 114.219391-9.585309l349.382319 344.647481c0 0 55.426357 20.687158 45.385677-36.375465L958.500729 507.119853zM340.983533 157.822468 195.989231 157.822468 195.989231 377.899816l149.735279-143.43376L340.983533 157.822468zM535.80466 563.916417l46.979988 0 0 38.20002-46.979988 0L535.80466 563.916417 535.80466 563.916417zM535.80466 489.014496l0 38.198997 46.979988 0 0-38.198997L535.80466 489.014496zM438.868911 563.916417l46.765093 0 0 38.20002-46.765093 0L438.868911 563.916417 438.868911 563.916417zM438.868911 489.014496l0 38.198997 46.765093 0 0-38.198997L438.868911 489.014496zM535.80466 563.916417l46.979988 0 0 38.20002-46.979988 0L535.80466 563.916417 535.80466 563.916417zM535.80466 489.014496l0 38.198997 46.979988 0 0-38.198997L535.80466 489.014496zM438.868911 563.916417l46.765093 0 0 38.20002-46.765093 0L438.868911 563.916417 438.868911 563.916417zM438.868911 489.014496l0 38.198997 46.765093 0 0-38.198997L438.868911 489.014496zM438.868911 489.014496" /></svg>