<svg t="1576036491404" class="icon" viewBox="0 0 1024 1024" version="1.1" xmlns="http://www.w3.org/2000/svg" p-id="1877" width="128" height="128"><path d="M955.733333 204.8H68.266667a68.266667 68.266667 0 0 0-68.266667 68.266667v477.866666a68.266667 68.266667 0 0 0 68.266667 68.266667h887.466666a68.266667 68.266667 0 0 0 68.266667-68.266667V273.066667a68.266667 68.266667 0 0 0-68.266667-68.266667z m-287.061333 251.221333l317.44-197.632A34.133333 34.133333 0 0 1 989.866667 273.066667v473.429333zM36.181333 760.490667A34.133333 34.133333 0 0 1 34.133333 750.933333V273.066667a34.133333 34.133333 0 0 1 3.754667-15.018667l327.68 204.8zM71.68 238.933333h880.64L512 512zM68.266667 785.066667a34.133333 34.133333 0 0 1-7.168 0l334.506666-302.762667L512 553.301333l126.293333-78.848 335.872 304.128A34.133333 34.133333 0 0 1 955.733333 785.066667z" p-id="1878" fill="#bfbfbf"></path></svg>