<svg xmlns="http://www.w3.org/2000/svg" viewBox="0 0 1024 1024" width="128" height="128">
	<style>
		tspan { white-space:pre }
		.shp0 { fill: #037eb3 } 
		.shp1 { fill: #9ae4e5 } 
	</style>
	<path id="Layer" class="shp0" d="M84.79 0L789.03 0C820.84 10.24 858.66 28.95 858.66 67.72C863.44 167.25 858.11 267.06 861.25 366.73C841.86 356.76 809.78 353.76 808.82 325.91C799.81 240.98 809.23 155.24 803.91 69.91C559.1 67.04 314.44 67.45 69.63 69.77C67.04 364.68 67.99 659.87 69.22 954.78C168.48 959.15 268.29 950.27 367.27 958.6C404.68 960.38 392.53 999.15 391.3 1024L85.2 1024C41.51 1015.26 8.47 982.63 0 938.8L0 84.79C9.83 41.92 41.92 9.69 84.79 0Z" />
	<path id="Layer" class="shp0" d="M152.1 235.66C330.27 227.05 508.86 235.52 687.31 231.15C700.69 258.87 692.63 299.14 655.77 299.55C495.89 302.28 335.87 298.87 175.85 300.92C161.25 281.8 152.51 259.96 152.1 235.66L152.1 235.66ZM151.69 515.69C141.59 449.06 217.36 465.03 259.41 463.39C303.51 466.26 381.88 447.15 369.19 516.23C296.82 520.19 224.19 520.6 151.69 515.69L151.69 515.69ZM149.78 748.89C137.49 666.69 334.23 671.61 300.65 750.25C251.49 765.27 199.2 758.44 149.78 748.89L149.78 748.89Z" />
	<path id="Layer" fill-rule="evenodd" class="shp1" d="M421.61 751.21C394.72 580.4 535.76 404.96 710.25 402.77C874.22 390.21 1028.64 532.34 1029.87 696.59C1043.8 850.6 926.92 985.09 783.02 1024L662.6 1024C541.9 983.72 431.99 884.19 421.61 751.21ZM560.47 899.62C694.14 1035.47 950.55 939.35 968.57 751.62C1004.07 576.17 816.74 410.42 647.03 472.54C470.77 526.75 418.07 781.24 560.47 899.62Z" />
	<path id="Layer" class="shp1" d="M679.8 742.6C758.85 702.46 818.24 611.26 913.13 613.44C913.41 623.14 913.82 642.53 914.09 652.36C847.19 700.28 779.61 747.11 711.75 793.53C643.48 844.6 595.01 743.97 549.55 705.47C515.96 679.25 552 642.39 585.73 657.95C620.13 682.53 648.53 714.34 679.8 742.6L679.8 742.6Z" />
</svg>