<svg t="1573472914959" class="icon" viewBox="0 0 1024 1024" version="1.1" xmlns="http://www.w3.org/2000/svg" p-id="15034" width="128" height="128"><path d="M310.4 470.1l170.4 135.3h-79.2l479.4-425c7.3-6.4 18.4-5.8 24.8 1.5 6 6.7 5.8 16.7 0 23.3l-425 479.4-1.9 2.1c-18.5 20.9-50.4 22.8-71.3 4.3-2.2-1.9-4.3-4.2-6.1-6.4L266.3 514.2c-10.8-13.6-8.5-33.3 5.1-44.1 11.7-9.3 27.9-8.9 39 0z" fill="#60A9D1" p-id="15035"></path><path d="M926.4 405.6c-18.6 0-33.6 15-33.6 33.6V847H960V439.2c0-18.5-15-33.6-33.6-33.6z" fill="#A6CBDD" p-id="15036"></path><path d="M892.8 847c0 25.3-20.6 45.8-45.8 45.8H177c-25.3 0-45.8-20.6-45.8-45.8V177c0-25.3 20.6-45.8 45.8-45.8h407.8c18.6 0 33.6-15 33.6-33.6S603.3 64 584.8 64H177c-62.4 0-113 50.6-113 113v670c0 62.4 50.6 113 113 113h670c62.4 0 113-50.6 113-113h-67.2z" fill="#A6CBDD" p-id="15037"></path></svg>