<?xml version="1.0" standalone="no"?><!DOCTYPE svg PUBLIC "-//W3C//DTD SVG 1.1//EN" "http://www.w3.org/Graphics/SVG/1.1/DTD/svg11.dtd"><svg class="icon" width="200px" height="200.00px" viewBox="0 0 1024 1024" version="1.1" xmlns="http://www.w3.org/2000/svg"><path fill="#008CD7" d="M833.176 606.564c37.737-60.688 59.927-131.977 59.927-208.47 0-218.921-178.605-397.021-398.09-397.021-219.534 0-398.178 178.1-398.178 397.021 0 87.873 29.126 168.877 77.787 234.72L30.118 883.48l156.358 11.582L275.333 1024l136.88-237.615c26.767 5.693 54.414 8.782 82.806 8.782 38.717 0 76.062-5.787 111.49-16.139L747.663 1024l88.858-128.938 156.314-11.582-159.659-276.916zM362.37 772.156L271.496 929.8l-57.172-83.017-100.66-7.458 95.25-165.296c0.79 0.832 1.719 1.474 2.509 2.307 9.742 9.86 19.876 19.33 30.555 28.111 2.364 1.917 4.918 3.581 7.283 5.448 8.902 6.966 18.004 13.636 27.45 19.872 3.641 2.401 7.384 4.463 11.07 6.72 9.104 5.542 18.353 10.794 27.9 15.603 3.002 1.57 6.05 2.995 9.154 4.414a397.407 397.407 0 0 0 34.93 14.575c0.885 0.342 1.72 0.782 2.605 1.078z m43.495-39.2a355.38 355.38 0 0 1-51.657-18.007 8.63 8.63 0 0 0-0.79-0.346c-15.4-6.822-30.112-14.916-44.236-23.843-1.62-1.035-3.344-1.967-4.92-2.995-13.377-8.731-26.027-18.592-38.076-29.146a321.702 321.702 0 0 1-7.632-6.916c-11.853-10.988-23.17-22.664-33.55-35.424-48.562-59.66-77.789-135.564-77.789-218.185 0-191.2 156.018-346.781 347.799-346.781 191.737 0 347.704 155.58 347.704 346.781 0 73.108-22.88 140.862-61.749 196.844-8.705 12.509-18.347 24.336-28.633 35.57-2.263 2.503-4.426 5.006-6.74 7.408-11.461 11.826-23.669 22.916-36.655 33.023-1.379 1.078-2.807 2.06-4.185 3.139-28.487 21.441-60.174 38.76-94.022 50.682-1.72 0.587-3.394 1.273-5.115 1.865l-8.611 2.995a347.098 347.098 0 0 1-101.994 15.307c-30.847 0-60.662-4.42-89.149-11.972z m402.807 113.826l-57.17 83.017-96.925-168.19c13.58-5.938 26.711-12.76 39.457-20.167 1.625-0.934 3.198-1.917 4.773-2.895 10.773-6.43 21.154-13.346 31.193-20.703a354.339 354.339 0 0 0 7.971-5.94c8.657-6.67 16.925-13.686 24.992-21.05 3.15-2.843 6.298-5.542 9.345-8.435 7.53-7.313 14.616-15.011 21.507-22.86 2.36-2.654 5.064-5.006 7.327-7.754L909.29 839.324l-100.617 7.458z"  /><path fill="#008CD7" d="M654.672 637.872l-30.548-177.414 129.3-125.559-178.65-25.904-79.71-161.369-79.95 161.369-178.693 25.904 129.343 125.56-30.503 177.361 159.753-83.753 159.658 83.805z m-309.915-267.94l103.814-15.016 46.398-93.76 46.347 93.76 103.765 15.017L570 442.889l17.76 103.033-92.74-48.671-92.845 48.721 17.713-103.083-75.13-72.956z"  /></svg>