<?xml version="1.0" standalone="no"?><!DOCTYPE svg PUBLIC "-//W3C//DTD SVG 1.1//EN" "http://www.w3.org/Graphics/SVG/1.1/DTD/svg11.dtd"><svg class="icon" width="200px" height="146.70px" viewBox="0 0 1396 1024" version="1.1" xmlns="http://www.w3.org/2000/svg"><path fill="#008CD7" d="M636.206545 744.494545l5.957819 0.046546c66.676364 0.698182 148.410182 13.079273 167.773091 46.266182 4.352 7.470545 4.328727 14.778182-0.093091 22.341818-12.893091 22.109091-66.117818 47.941818-173.637819 47.941818-32.256 0-55.389091-3.956364-77.381818-13.265454-21.131636-8.890182-36.468364-27.834182-36.468363-45.032728 0-17.198545 15.36-36.142545 36.468363-45.056 21.992727-9.285818 45.149091-13.242182 77.381818-13.242182zM264.494545 464.709818c19.409455 1.326545 39.028364 3.374545 58.810182 6.260364 125.789091 18.269091 212.945455 52.386909 274.269091 107.380363a273.035636 273.035636 0 0 1 85.061818 145.803637c-38.516364 3.560727-77.684364 5.352727-116.596363 5.352727-154.344727 0-270.592-17.943273-376.901818-58.228364C87.272727 632.669091 22.039273 571.275636 4.654545 497.873455a516.608 516.608 0 0 1 57.25091-16.989091 616.448 616.448 0 0 1 41.216-8.517819 80.593455 80.593455 0 0 0 47.872 59.252364l2.490181 1.047273 2.792728 1.000727c8.564364 3.072 17.803636 4.817455 27.461818 4.817455 42.589091 0 77.428364-32.488727 80.756363-73.774546zM566.039273 186.181818c189.649455 0 372.596364 42.286545 534.760727 121.6l6.749091 3.328-0.674909-0.372363 2.955636 1.512727c5.399273 2.699636 10.775273 5.422545 16.128 8.215273l5.981091 3.118545 7.633455 4.072727 7.586909 4.119273 6.516363 3.584 7.237819 4.049455 7.191272 4.119272 6.912 3.979637c4.677818 2.722909 9.309091 5.492364 13.917091 8.285091l4.887273 2.932363-0.814546-0.465454a1110.155636 1110.155636 0 0 1 83.456 56.087272l-7.168-0.116363-7.214545-0.069818h-2.257455c-46.149818 0-89.669818 4.887273-116.386909 13.079272-28.485818 8.704-30.952727 21.573818-31.185454 27.392v1.466182c0 19.316364 23.319273 26.461091 30.999273 28.788364 26.065455 7.982545 67.723636 12.8 112.267636 13.102545h6.562909c6.516364 0 12.939636-0.093091 19.316364-0.279273a1133.474909 1133.474909 0 0 1-237.335273 136.029091 1208.715636 1208.715636 0 0 1-346.274909 88.901819 287.837091 287.837091 0 0 0-90.042182-155.392c-63.650909-57.064727-153.344-92.392727-282.228364-111.104a786.804364 786.804364 0 0 0-61.207272-6.469819 79.313455 79.313455 0 0 0-19.386182-43.799272l-2.513455-2.792728a86.853818 86.853818 0 0 0-3.025454-2.932363l-1.815273-1.722182-2.234182-1.931636-0.372363-0.279273a81.268364 81.268364 0 0 0-51.968-18.711273c-44.683636 0-80.942545 35.723636-81.221819 79.848727a624.872727 624.872727 0 0 0-43.52 8.983273c-21.876364 5.329455-40.075636 10.658909-56.459636 16.593455A174.545455 174.545455 0 0 1 0 457.844364c0-90.088727 68.933818-167.889455 189.160727-213.410909C295.447273 204.125091 411.694545 186.181818 566.039273 186.181818zM1275.345455 520.820364c8.378182 6.935273 16.523636 14.475636 24.32 22.574545a81.733818 81.733818 0 0 1 12.916363 96.581818c-2.629818 4.747636-5.492364 9.541818-8.564363 14.242909-31.069091 47.639273-93.882182 65.163636-146.106182 40.680728l-30.487273-14.382546a5908.549818 5908.549818 0 0 1-72.424727-35.141818 1150.301091 1150.301091 0 0 0 220.346182-124.555636z m-13.265455-93.486546c3.770182 0 7.470545 0 11.147636 0.093091l5.515637 0.116364c3.630545 0.093091 7.214545 0.232727 10.728727 0.372363l5.259636 0.232728c31.627636 1.629091 58.88 5.585455 77.544728 10.961454l4.375272 1.326546c6.353455 2.024727 19.735273 7.028364 19.735273 15.662545 0 9.355636-15.825455 14.429091-21.224727 16.104727l-0.605091 0.186182c-20.386909 6.237091-52.177455 10.682182-89.018182 12.032l-4.421818 0.139637c-4.142545 0.139636-8.354909 0.232727-12.613818 0.256l-8.657455 0.023272c-45.265455 0-85.341091-4.631273-110.173091-11.776l-2.280727-0.674909c-4.724364-1.442909-21.829818-6.539636-21.829818-16.290909 0-9.774545 17.105455-14.871273 21.829818-16.290909 23.854545-7.330909 63.301818-12.171636 108.218182-12.474182h6.493091z m-104.168727-204.101818c52.224-24.482909 115.037091-6.981818 146.106182 40.680727 3.072 4.701091 5.934545 9.495273 8.564363 14.219637a81.733818 81.733818 0 0 1-12.916363 96.581818c-7.307636 7.586909-14.894545 14.661818-22.714182 21.271273a1149.346909 1149.346909 0 0 0-219.112728-124.625455l27.29891-13.358545c20.759273-10.100364 46.08-22.272 72.773818-34.792728z" /></svg>