<?xml version="1.0" standalone="no"?><!DOCTYPE svg PUBLIC "-//W3C//DTD SVG 1.1//EN" "http://www.w3.org/Graphics/SVG/1.1/DTD/svg11.dtd"><svg class="icon" width="200px" height="200.00px" viewBox="0 0 1024 1024" version="1.1" xmlns="http://www.w3.org/2000/svg"><path fill="#008CD7" d="M989.738523 398.930383c-66.027531 230.995192-231.197524 290.480669-410.058618 290.480669h-68.11829V599.238622c2.360535-84.304815-23.672792-87.070013-68.320622-48.896792 0 0-281.645525 180.412303-306.734637 207.659619s0 34.598696 0 34.598696l306.734637 207.727063c44.445498 38.240664 68.320622 28.865969 68.320622-38.442995v-65.285649c259.32161 0 506.57077-188.842785 511.83139-517.766449 0-22.796022-23.47046-12.409669-33.721926 19.356385z m-478.176908-53.955082v75.267339c-2.360535 86.058355 23.740236 88.756109 68.185734 50.717776L886.54943 263.031022s20.233156-9.374695 0-34.801028L579.747349 20.233156C535.301851-18.344728 511.561615-1.011658 511.561615 66.297306v69.33228C252.172561 135.629586 4.990845 312.602253 0.606995 642.537575c0 22.728578 23.403017 12.409669 33.721926-19.558717 64.948429-230.388197 229.309096-279.487321 408.979516-279.487321l68.253178 1.348877z m0 0" /></svg>