<svg t="1636083129151" class="icon" viewBox="0 0 1024 1024" version="1.1" xmlns="http://www.w3.org/2000/svg" p-id="1221" width="200" height="200"><path d="M634.093511 573.745045a20.282277 20.282277 0 0 1-20.282277-20.282276V100.681222a20.282277 20.282277 0 0 1 20.282277-20.282277 20.282277 20.282277 0 0 1 20.282277 20.282277v452.781547a20.282277 20.282277 0 0 1-20.282277 20.282276z" p-id="1222" fill="#1296db"></path><path d="M329.129198 204.990074c-83.192104 0-161.643951-8.796713-220.914559-24.779147-69.226308-18.659695-104.308852-44.806447-104.308852-77.710095s35.094134-59.108349 104.308852-77.710095C167.485247 8.808303 245.937093 0.01159 329.129198 0.01159S490.773149 8.808303 550.043756 24.790737c69.226308 18.659695 104.308852 44.806447 104.308852 77.710095s-35.094134 59.108349-104.308852 77.710095c-59.270608 15.970844-137.722454 24.779147-220.914558 24.779147z m0-164.413931c-79.726733 0-154.43505 8.298349-210.356185 23.376773C57.068532 80.584383 44.458751 98.595045 44.458751 102.500832s12.609781 21.904859 74.314262 38.559506c55.955904 15.066834 130.641042 23.365183 210.356185 23.365182s154.43505-8.298349 210.356184-23.365182c61.75084-16.654647 74.325852-34.653719 74.325852-38.559506s-12.575012-21.916449-74.325852-38.547916C483.564248 48.874492 408.84434 40.564554 329.129198 40.564554zM325.617466 378.652723c-68.936561 0-145.707876-9.06328-205.836134-24.338733C42.755039 334.761876 4.832977 309.403235 3.882607 276.754564l40.564554-1.240116c0.695392 4.010096 17.825224 22.797279 88.790013 40.332756 57.033762 14.128055 129.852931 22.449583 194.570778 22.240965 63.744298-0.185438 136.28531-8.819893 193.921746-23.087026 70.269397-17.384809 90.574853-35.708397 92.151076-40.761581a2.086177 2.086177 0 0 0-0.06954 0.533134l40.564554 0.683802c-0.533134 31.721481-38.339298 56.917864-115.562618 77.049472-62.005818 16.179462-140.84013 25.949724-210.889319 26.146753z" p-id="1223" fill="#1296db"></path><path d="M3.778298 103.196224h40.564554V812.797754H3.778298z" p-id="1224" fill="#1296db"></path><path d="M325.571107 562.120403c-68.936561 0-145.696286-9.06328-205.836135-24.338732C42.70868 518.229556 4.786617 492.870916 3.836248 460.222245l40.564553-1.240116c0.695392 4.010096 17.825224 22.797279 88.790013 40.321166 57.045352 14.139644 129.818161 22.391634 194.524419 22.252555 63.744298-0.185438 136.28531-8.819893 193.921746-23.087026 70.269397-17.384809 90.574853-35.708397 92.151076-40.761581a2.086177 2.086177 0 0 0-0.069539 0.533134l40.564553 0.695392c-0.533134 31.721481-38.339298 56.917864-115.562618 77.049472-61.959458 16.156282-140.782181 25.926545-210.83137 26.135162zM325.571107 733.604156c-68.936561 0-145.696286-9.06328-205.836135-24.338732C42.70868 689.713309 4.786617 664.354668 3.836248 631.705998l40.564553-1.240117c0.695392 4.010096 17.825224 22.797279 88.790013 40.321166 57.045352 14.139644 129.818161 22.461173 194.524419 22.252556a879.427931 879.427931 0 0 0 139.90135-12.030288l6.687357 40.00824a920.734237 920.734237 0 0 1-146.414859 12.586601zM325.571107 913.258769c-68.936561 0-145.696286-9.06328-205.836135-24.338732C42.70868 869.367922 4.786617 844.009281 3.836248 811.36061l40.564553-1.240116c0.695392 4.010096 17.825224 22.797279 88.790013 40.321166 57.045352 14.128055 129.818161 22.449583 194.524419 22.240965a889.290913 889.290913 0 0 0 147.330459-13.305173l7.058232 39.95029a931.199891 931.199891 0 0 1-154.272792 13.907847z" p-id="1225" fill="#1296db"></path><path d="M486.322638 954.785282a20.282277 20.282277 0 0 1-20.282277-20.282277v-299.134608a20.282277 20.282277 0 0 1 40.564553 0v299.134608a20.282277 20.282277 0 0 1-20.282276 20.282277zM999.927835 799.434632a20.282277 20.282277 0 0 1-20.282277-20.282277v-155.651987a20.282277 20.282277 0 0 1 40.564554 0v155.651987a20.282277 20.282277 0 0 1-20.282277 20.282277z" p-id="1226" fill="#1296db"></path><path d="M744.17412 723.312349c-70.049189 0-136.157821-7.452288-186.144942-20.977669-59.653073-16.144692-89.891051-39.196949-89.89105-68.519326s30.249567-52.339864 89.89105-68.565685c49.98712-13.525381 116.095752-20.977669 186.144942-20.977669s136.157821 7.452288 186.144941 20.977669c59.653073 16.144692 89.891051 39.196949 89.891051 68.519326s-30.249567 52.374634-89.891051 68.519326c-49.97553 13.571741-116.084162 21.024029-186.144941 21.024028z m-235.436669-89.496995c1.158987 3.534911 14.742318 17.871583 64.903286 30.689983 46.046563 11.763721 106.626826 18.242459 170.487023 18.242459s124.44046-6.478739 170.487024-18.242459c50.207327-12.818399 63.744298-27.155071 64.903286-30.689983-1.158987-3.534911-14.742318-17.871583-64.903286-30.689982-46.046563-11.763721-106.626826-18.242459-170.487024-18.242459s-124.347741 6.467149-170.440664 18.230869c-50.207327 12.829989-63.790658 27.166661-64.949645 30.701572zM740.210383 869.53018c-58.297058 0-123.211934-7.660906-174.091474-20.572024-66.421559-16.863264-99.151359-39.196949-100.043779-68.310708l40.564554-1.240116a2.827929 2.827929 0 0 0-0.150668-0.88083c1.692121 4.218714 19.505755 19.343497 77.17696 32.961597 46.429029 10.964019 104.818806 17.477528 156.567587 17.477528H742.053173c52.826639-0.150668 110.85713-6.953923 159.221668-18.543796 57.949362-13.907847 76.690186-28.974681 78.672054-33.193395a4.392562 4.392562 0 0 0-0.289747 1.576223l40.564554 0.695392c-0.486775 28.337238-33.089086 50.555024-99.672903 67.916652-52.444173 13.66446-119.109119 21.928039-178.344958 22.113477z" p-id="1227" fill="#1296db"></path><path d="M999.927835 953.904451a20.282277 20.282277 0 0 1-20.282277-20.282276v-155.651987a20.282277 20.282277 0 0 1 40.564554 0v155.651987a20.282277 20.282277 0 0 1-20.282277 20.282276z" p-id="1228" fill="#1296db"></path><path d="M740.187204 1024c-58.297058 0-123.223524-7.660906-174.091474-20.572024-66.421559-16.851675-99.151359-39.196949-100.032189-68.310708l40.564553-1.240116a2.827929 2.827929 0 0 0-0.150668-0.88083c1.692121 4.218714 19.505755 19.343497 77.17696 32.961597 46.973753 11.091508 106.163232 17.674555 158.387197 17.477527 52.826639-0.150668 110.85713-6.953923 159.221668-18.543795 57.949362-13.907847 76.690186-28.974681 78.672054-33.193395a4.392562 4.392562 0 0 0-0.289747 1.576223l40.564554 0.695392c-0.486775 28.348828-33.089086 50.555024-99.672903 67.916652-52.444173 13.66446-119.109119 21.928039-178.344957 22.113477z" p-id="1229" fill="#1296db"></path></svg>