<svg t="1573446021522" class="icon" viewBox="0 0 1024 1024" version="1.1" xmlns="http://www.w3.org/2000/svg" p-id="10632" width="128" height="128"><path d="M881.777778 432.355556c62.577778 79.644444 91.022222 170.666667 91.022222 267.377777 0 85.333333-39.822222 159.288889-113.777778 210.488889-39.822222 28.444444-85.333333 51.2-142.222222 68.266667-56.888889 17.066667-130.844444 22.755556-204.8 22.755555s-142.222222-5.688889-204.8-22.755555c-56.888889-17.066667-102.4-39.822222-142.222222-68.266667-73.955556-56.888889-113.777778-130.844444-113.777778-210.488889 0-68.266667 17.066667-136.533333 51.2-204.8 5.688889-17.066667 28.444444-22.755556 39.822222-11.377777 17.066667 5.688889 22.755556 28.444444 11.377778 39.822222l-5.688889 5.688889c-28.444444 51.2-39.822222 108.088889-39.822222 164.977777 0 62.577778 28.444444 119.466667 85.333333 164.977778 68.266667 51.2 176.355556 79.644444 312.888889 79.644445 130.844444 0 238.933333-28.444444 312.888889-79.644445 56.888889-39.822222 85.333333-102.4 85.333333-164.977778 0-187.733333-136.533333-318.577778-267.377777-369.777777-11.377778-5.688889-17.066667-17.066667-17.066667-28.444445s5.688889-22.755556 17.066667-28.444444c34.133333-22.755556 56.888889-45.511111 56.888888-73.955556s-17.066667-51.2-51.2-73.955555c-34.133333-22.755556-85.333333-34.133333-136.533333-34.133334s-96.711111 11.377778-136.533333 34.133334c-34.133333 22.755556-51.2 45.511111-51.2 73.955555s22.755556 56.888889 56.888889 73.955556c11.377778 5.688889 17.066667 17.066667 17.066666 28.444444s-5.688889 22.755556-17.066666 28.444445c-28.444444 11.377778-56.888889 28.444444-85.333334 45.511111-153.6 96.711111-142.222222 227.555556-199.111111 187.733333-39.822222 0 45.511111-176.355556 164.977778-238.933333l45.511111-28.444445c-28.444444-28.444444-45.511111-62.577778-45.511111-96.711111 0-22.755556 5.688889-45.511111 22.755556-68.266666 11.377778-22.755556 34.133333-39.822222 56.888888-51.2 45.511111-28.444444 108.088889-45.511111 170.666667-45.511112s125.155556 17.066667 170.666667 45.511112c22.755556 17.066667 39.822222 34.133333 56.888889 51.2 17.066667 22.755556 22.755556 45.511111 22.755555 68.266666 0 34.133333-17.066667 68.266667-45.511111 96.711111 68.266667 39.822222 125.155556 85.333333 170.666667 142.222223z m-551.822222 238.933333c0-17.066667 11.377778-28.444444 28.444444-28.444445h125.155556v-62.577777H358.4c-17.066667 0-28.444444-11.377778-28.444444-28.444445s11.377778-28.444444 28.444444-28.444444h79.644444L364.088889 449.422222c-11.377778-11.377778-11.377778-34.133333 0-45.511111 11.377778-11.377778 34.133333-11.377778 45.511111 0L512 506.311111l102.4-102.4c11.377778-11.377778 34.133333-11.377778 45.511111 0s11.377778 34.133333 0 45.511111l-68.266667 68.266667h79.644445c17.066667 0 28.444444 11.377778 28.444444 28.444444s-11.377778 28.444444-28.444444 28.444445H546.133333v62.577778h125.155556c17.066667 0 28.444444 11.377778 28.444444 28.444444s-11.377778 28.444444-28.444444 28.444444H546.133333V796.444444c0 17.066667-11.377778 28.444444-28.444444 28.444445s-28.444444-11.377778-28.444445-28.444445v-91.022222H364.088889c-17.066667 0-34.133333-17.066667-34.133333-34.133333z" fill="#cdcdcd" p-id="10633"></path></svg>