<?xml version="1.0" standalone="no"?><!DOCTYPE svg PUBLIC "-//W3C//DTD SVG 1.1//EN" "http://www.w3.org/Graphics/SVG/1.1/DTD/svg11.dtd"><svg class="icon" width="200px" height="200.00px" viewBox="0 0 1024 1024" version="1.1" xmlns="http://www.w3.org/2000/svg"><path d="M0 0m128 0l768 0q128 0 128 128l0 768q0 128-128 128l-768 0q-128 0-128-128l0-768q0-128 128-128Z" fill="#1AC361" /><path d="M645.376 378.816c8.8 0 17.376 0.672 26.016 1.6-23.36-107.744-139.84-187.712-272.928-187.712-148.576-0.064-270.4 100.096-270.4 227.328 0 73.376 40.544 133.664 108.256 180.512l-27.04 80.448 94.496-46.848c33.888 6.624 60.96 13.44 94.784 13.44 8.416 0 16.896-0.48 25.216-1.088a195.584 195.584 0 0 1-8.32-56c0.064-116.896 101.44-211.68 229.92-211.68z m-145.408-72.48c20.384 0 33.888 13.184 33.888 33.408 0 20.064-13.504 33.504-33.888 33.504-20.288 0-40.608-13.44-40.608-33.504-0.064-20.224 20.384-33.408 40.64-33.408zM310.72 373.12c-20.32 0-40.768-13.44-40.768-33.472 0-20.16 20.48-33.44 40.768-33.44s33.792 13.216 33.792 33.44c-0.064 20.064-13.504 33.472-33.792 33.472z" fill="#FFFFFF" /><path d="M892.224 587.2c0-106.88-108.192-193.952-229.76-193.952-128.672 0-230.016 87.04-230.016 193.952 0 107.072 101.344 193.984 230.016 193.984 26.912 0 54.176-6.72 81.184-13.44l74.176 40.128-20.288-66.752c54.24-40.32 94.72-93.632 94.72-153.92z m-304.256-33.408c-13.504 0-27.008-13.28-27.008-26.72 0-13.344 13.568-26.688 27.008-26.688 20.48 0 33.888 13.44 33.888 26.688-0.096 13.44-13.44 26.72-33.92 26.72z m148.736 0c-13.344 0-26.88-13.28-26.88-26.72 0-13.344 13.536-26.688 26.88-26.688 20.288 0 33.888 13.44 33.888 26.688-0.096 13.44-13.6 26.72-33.92 26.72z" fill="#FFFFFF" /></svg>