<?xml version="1.0" standalone="no"?><!DOCTYPE svg PUBLIC "-//W3C//DTD SVG 1.1//EN" "http://www.w3.org/Graphics/SVG/1.1/DTD/svg11.dtd"><svg t="1595228906727" class="icon" viewBox="0 0 1024 1024" version="1.1" xmlns="http://www.w3.org/2000/svg" p-id="18298" xmlns:xlink="http://www.w3.org/1999/xlink" width="128" height="128"><defs><style type="text/css"></style></defs><path d="M585.29999 962.902453H85.08516a19.28498 19.28498 0 0 1-14.591732-6.655878 18.943653 18.943653 0 0 1-6.314551-14.5064V80.998622A16.213036 16.213036 0 0 1 66.056176 73.148099 28.159484 28.159484 0 0 1 78.173287 61.62831a16.725027 16.725027 0 0 1 7.594527-1.791967h846.832475c5.717229 0 10.154481 2.38929 14.591732 6.655878 4.522584 4.266588 6.314551 9.045168 6.314551 14.506401v505.334735c0 16.298368 13.99441 30.207446 31.82875 30.207446a30.719437 30.719437 0 0 0 31.658086-30.207446V79.803977a74.835961 74.835961 0 0 0-24.746213-56.148304 83.881129 83.881129 0 0 0-59.646906-23.6369H84.402506C73.650703 0.018773 62.813568 2.408063 52.061766 6.674651a80.382526 80.382526 0 0 0-45.055174 42.92188A73.043994 73.043994 0 0 0 0.009386 80.401299v863.130843c0 22.356923 8.277182 41.044581 24.746213 56.830958 16.469031 15.103723 36.863324 23.039578 59.646907 23.039578h500.897484c17.151686 0 31.658086-13.311756 31.658086-30.207447s-14.421069-30.292778-31.658086-30.292778zM210.096202 574.216246c-17.749008 0-31.743418 13.311756-31.743418 30.207446s13.99441 30.207446 31.743418 30.207446h88.233049c17.749008 0 31.743418-13.226424 31.743418-30.207446s-13.909078-30.207446-31.658087-30.207446H210.096202z m221.606603-158.290431a30.719437 30.719437 0 0 0-31.743418-30.207447H210.096202a30.719437 30.719437 0 0 0-31.743418 30.207447 30.719437 30.719437 0 0 0 31.743418 30.207446h189.863185a31.146096 31.146096 0 0 0 31.743418-30.207446z m406.947206-187.985887c0-16.981022-13.99441-30.207446-31.828749-30.207446H210.096202a30.719437 30.719437 0 0 0-31.743418 30.207446 30.719437 30.719437 0 0 0 31.743418 30.207446h596.72506c17.83434-0.085332 31.82875-13.311756 31.828749-30.207446z m172.711501 741.021081l-151.719885-140.797419c34.218039-41.129913 54.612332-93.09696 54.612332-149.927918 0-133.544218-113.661916-241.830233-253.947345-241.830233-140.37076 0-253.947344 108.286015-253.947344 241.830233s113.661916 241.744901 253.947344 241.744902c57.769608 0 111.101963-18.772989 153.597184-49.577758l152.999862 142.077395c12.629102 11.519789 32.426072 10.922466 45.055174-0.597322a29.524792 29.524792 0 0 0-0.597322-42.92188z m-351.140229-109.395328c-104.787412 0-190.460508-81.577171-190.460509-181.330009S555.519202 496.905663 660.221283 496.905663s190.375176 81.577171 190.375176 181.330009-84.90511 181.330009-190.375176 181.330009z" fill="#006699" p-id="18299"></path></svg>