<?xml version="1.0" standalone="no"?><!DOCTYPE svg PUBLIC "-//W3C//DTD SVG 1.1//EN" "http://www.w3.org/Graphics/SVG/1.1/DTD/svg11.dtd"><svg class="icon" width="128px" height="128.00px" viewBox="0 0 1024 1024" version="1.1" xmlns="http://www.w3.org/2000/svg"><path fill="#006699" d="M768 343.552c0 141.312-114.688 256-256 256s-256-114.688-256-256 114.688-256 256-256 256 114.688 256 256z m-256 184.32c101.888 0 184.32-82.432 184.32-184.32S613.888 159.232 512 159.232s-184.32 82.432-184.32 184.32 82.432 184.32 184.32 184.32z"  /><path fill="#006699" d="M512 598.528c175.616 0 320 134.144 336.384 305.664 1.536 18.432 17.408 32.256 35.84 32.256 20.992 0 37.888-18.432 35.84-39.424-19.968-207.36-195.072-370.176-407.552-370.176S124.416 689.152 104.96 897.024c-2.048 20.992 14.336 39.424 35.84 39.424 18.432 0 33.792-13.824 35.84-32.256C192 732.672 336.384 598.528 512 598.528z m-241.152-70.144c0.512-8.192-4.096-15.36-11.264-18.944-45.568-22.528-97.792-97.28-99.84-143.872-3.584-68.096 35.84-126.976 93.184-153.088 13.312-6.144 23.04-18.944 23.04-33.28 0-26.112-26.624-43.008-50.688-32.768C141.312 183.296 83.456 268.8 87.552 367.104c2.56 62.464 30.72 118.272 73.216 158.208C74.752 577.024 14.336 666.624 1.536 770.56c-2.56 21.504 15.36 39.936 36.864 39.936h1.024c17.92 0 31.232-12.8 33.792-30.208 15.36-95.744 100.352-200.192 184.832-235.008 7.68-2.56 12.8-9.216 12.8-16.896z"  /><path fill="#006699" d="M755.2 528.384c-0.512-8.192 4.096-15.36 11.264-18.944 45.568-22.528 97.792-97.28 99.84-143.872 3.584-68.096-35.84-126.976-93.184-153.088-13.312-6.144-23.04-18.944-23.04-33.28 0-26.112 26.624-43.008 50.688-32.768 83.968 36.864 141.824 122.368 137.728 220.672-2.56 62.464-30.72 118.272-73.216 158.208 86.016 51.712 146.432 141.312 159.232 245.248 2.56 21.504-15.36 39.936-36.864 39.936h-1.024c-17.92 0-31.232-12.8-33.792-30.208C937.472 684.544 852.48 580.096 768 545.28c-7.68-2.56-12.288-9.216-12.8-16.896z"  /></svg>