<?xml version="1.0" standalone="no"?><!DOCTYPE svg PUBLIC "-//W3C//DTD SVG 1.1//EN" "http://www.w3.org/Graphics/SVG/1.1/DTD/svg11.dtd"><svg t="1595320013236" class="icon" viewBox="0 0 1024 1024" version="1.1" xmlns="http://www.w3.org/2000/svg" p-id="2268" xmlns:xlink="http://www.w3.org/1999/xlink" width="128" height="128"><defs><style type="text/css"></style></defs><path d="M512.012 630.535L927.56 284.31c-2.251-0.41-4.274-1.348-6.61-1.348H103.074c-2.288 0-4.323 0.927-6.574 1.348l415.512 346.226zM958.134 320.144c0-3.9-1.072-7.513-2.252-11.066L661.313 554.602l295.014 295.075c0.759-2.974 1.807-5.84 1.807-9.055V320.144zM68.154 309.042c-1.144 3.577-2.288 7.14-2.288 11.102V840.61c0 3.25 1.12 6.105 1.855 9.079L362.83 554.59 68.154 309.042z" fill="#006699" p-id="2269"></path><path d="M632.583 578.493l-108.698 90.539c-3.408 2.902-7.622 4.299-11.873 4.299-4.214 0-8.453-1.397-11.897-4.3l-108.601-90.49L94.079 875.963c2.926 0.77 5.828 1.842 8.995 1.842h817.888c3.227 0 6.129-1.06 9.115-1.842l-297.494-297.47z" fill="#006699" p-id="2270"></path></svg>