<?xml version="1.0" standalone="no"?><!DOCTYPE svg PUBLIC "-//W3C//DTD SVG 1.1//EN" "http://www.w3.org/Graphics/SVG/1.1/DTD/svg11.dtd"><svg class="icon" width="128px" height="128.00px" viewBox="0 0 1024 1024" version="1.1" xmlns="http://www.w3.org/2000/svg"><path fill="#006699" d="M510.686075 63.10934c-247.473301 0-448.840518 201.039759-448.840518 448.176392s201.3621 448.181509 448.840518 448.181509c247.472278 0 448.839495-201.044876 448.839495-448.181509S758.162446 63.10934 510.686075 63.10934L510.686075 63.10934 510.686075 63.10934 510.686075 63.10934 510.686075 63.10934 510.686075 63.10934zM510.686075 911.385153c-220.932832 0-400.662239-179.492-400.662239-400.099421 0-220.612537 179.729407-400.078954 400.662239-400.078954 220.931808 0 400.661216 179.466418 400.661216 400.078954S731.617883 911.385153 510.686075 911.385153L510.686075 911.385153 510.686075 911.385153 510.686075 911.385153 510.686075 911.385153 510.686075 911.385153zM619.266026 276.854469l-71.278393 131.145899c-19.022239 35.533284-30.617321 59.173704-34.874275 70.867024l-1.238201 0c-12.524245-28.465309-47.892777-95.782483-106.132202-202.012923l-67.041906 0 124.665301 213.826993-102.217033 0 0 47.27163 119.816876 0 0 65.107857L361.15341 603.060949l0 47.828308 119.816876 0 0 94.828762 59.438741 0 0-94.833879 115.585505 0 0-47.823192L540.41005 603.060949l0-65.107857 115.585505 0 0-47.27163L556.805462 490.681462l125.864616-213.826993L619.266026 276.854469 619.266026 276.854469 619.266026 276.854469 619.266026 276.854469 619.266026 276.854469 619.266026 276.854469zM619.266026 276.854469" /></svg>