<?xml version="1.0" standalone="no"?><!DOCTYPE svg PUBLIC "-//W3C//DTD SVG 1.1//EN" "http://www.w3.org/Graphics/SVG/1.1/DTD/svg11.dtd"><svg class="icon" width="200px" height="133.42px" viewBox="0 0 1535 1024" version="1.1" xmlns="http://www.w3.org/2000/svg"><path fill="#008CD7" d="M703.564626 54.953893c119.195767 0 231.167549 46.439909 315.533384 130.547745 84.365835 84.365835 130.547745 196.337617 130.547745 315.533383s-46.439909 231.167549-130.547745 315.533384c-84.365835 84.365835-196.337617 130.547745-315.533384 130.547745s-231.167549-46.439909-315.533384-130.547745c-84.365835-84.365835-130.547745-196.337617-130.547745-315.533384s46.439909-231.167549 130.547745-315.533383c84.365835-84.107836 196.337617-130.547745 315.533384-130.547745m0-43.859915c-270.641471 0-489.941043 219.299572-489.941043 489.941043s219.299572 489.941043 489.941043 489.941043 489.941043-219.299572 489.941043-489.941043S974.206097 11.093978 703.564626 11.093978z"  /><path fill="#008CD7" d="M870.2323 456.143109c-15.737969-76.367851-83.075838-134.933736-166.667674-134.933736-65.273873 0-121.517763 35.86193-148.60771 89.783824-69.659864 9.029982-121.517763 65.273873-121.517763 134.933737 0 74.303855 60.887881 134.933736 134.933737 134.933736h292.571428c62.951877 0 112.229781-49.535903 112.229781-112.229781 0.515999-58.565886-46.697909-107.843789-102.941799-112.48778z m0 187.565634H561.148904c-52.115898 0-94.943815-42.827916-94.943815-94.943815 0-52.115898 42.827916-102.941799 94.943815-102.941799h16.511968c16.511968-54.695893 66.56387-87.20383 125.903754-87.203829 71.207861 0 133.385739 48.761905 133.385739 120.227765v11.867977h29.669942c40.505921 0 73.787856 41.279919 73.787856 81.78584 0 40.247921-29.927942 71.207861-70.175863 71.207861z m0 0"  /><path fill="#008CD7" d="M785.608466 497.423028l-15.73797-15.737969c-0.773998-0.773998-2.321995-1.031998-3.353993 0l-83.591837 83.591837-42.827916-42.827916c-0.773998-0.773998-2.321995-0.773998-3.353994 0l-15.737969 15.737969c-0.773998 0.773998-0.773998 2.321995 0 3.353993l60.113883 60.113883c0.257999 0.257999 0.515999 0.257999 0.773998 0.515999 1.031998 0.515999 1.805996 0.257999 2.321996-0.515999l100.877803-100.877803c1.547997-1.031998 1.547997-2.321995 0.515999-3.353994z m0 0"  /></svg>